<svg width="302" height="261" viewBox="0 0 302 261" fill="none" xmlns="http://www.w3.org/2000/svg">
<g clip-path="url(#clip0_2189_132745)">
<path d="M42.8608 69.6072H18.7254C17.4353 69.6057 16.1984 69.0926 15.2862 68.1803C14.374 67.2681 13.8608 66.0313 13.8594 64.7412V42.1629C13.8608 40.8728 14.374 39.6359 15.2862 38.7237C16.1984 37.8115 17.4353 37.2983 18.7254 37.2969H42.8608C44.1509 37.2983 45.3877 37.8115 46.3 38.7237C47.2122 39.6359 47.7253 40.8728 47.7268 42.1629V64.7412C47.7253 66.0313 47.2122 67.2681 46.3 68.1803C45.3877 69.0926 44.1509 69.6057 42.8608 69.6072Z" fill="#EA4C4C" fill-opacity="0.3"/>
<path d="M101.058 69.8025H76.9226C75.6325 69.801 74.3957 69.2879 73.4835 68.3757C72.5712 67.4634 72.0581 66.2266 72.0566 64.9365V42.3582C72.0581 41.0681 72.5712 39.8313 73.4835 38.919C74.3957 38.0068 75.6325 37.4936 76.9226 37.4922H101.058C102.348 37.4936 103.585 38.0068 104.497 38.919C105.409 39.8313 105.923 41.0681 105.924 42.3582V64.9365C105.923 66.2266 105.409 67.4634 104.497 68.3757C103.585 69.2879 102.348 69.801 101.058 69.8025Z" fill="#4A4AAB"/>
<path d="M159.255 69.9978H135.12C133.83 69.9963 132.593 69.4832 131.681 68.571C130.768 67.6587 130.255 66.4219 130.254 65.1318V42.5535C130.255 41.2634 130.768 40.0266 131.681 39.1143C132.593 38.2021 133.83 37.689 135.12 37.6875H159.255C160.545 37.689 161.782 38.2021 162.695 39.1143C163.607 40.0266 164.12 41.2634 164.121 42.5535V65.1318C164.12 66.4219 163.607 67.6587 162.695 68.571C161.782 69.4832 160.545 69.9963 159.255 69.9978Z" fill="#7B61FF"/>
<path d="M42.8608 120.217H18.7254C17.4353 120.215 16.1984 119.702 15.2862 118.79C14.374 117.877 13.8608 116.641 13.8594 115.351V92.7723C13.8608 91.4822 14.374 90.2453 15.2862 89.3331C16.1984 88.4208 17.4353 87.9077 18.7254 87.9062H42.8608C44.1509 87.9077 45.3877 88.4208 46.3 89.3331C47.2122 90.2453 47.7253 91.4822 47.7268 92.7723V115.351C47.7253 116.641 47.2122 117.877 46.3 118.79C45.3877 119.702 44.1509 120.215 42.8608 120.217Z" fill="#4A4AAB"/>
<path d="M101.058 120.408H76.9226C75.6325 120.407 74.3957 119.893 73.4835 118.981C72.5712 118.069 72.0581 116.832 72.0566 115.542V92.9637C72.0581 91.6736 72.5712 90.4367 73.4835 89.5245C74.3957 88.6122 75.6325 88.0991 76.9226 88.0977H101.058C102.348 88.0991 103.585 88.6122 104.497 89.5245C105.409 90.4367 105.923 91.6736 105.924 92.9637V115.542C105.923 116.832 105.409 118.069 104.497 118.981C103.585 119.893 102.348 120.407 101.058 120.408Z" fill="#A0616A"/>
<path d="M159.255 120.603H135.12C133.83 120.602 132.593 120.089 131.681 119.176C130.768 118.264 130.255 117.027 130.254 115.737V93.159C130.255 91.8689 130.768 90.632 131.681 89.7198C132.593 88.8076 133.83 88.2944 135.12 88.293H159.255C160.545 88.2944 161.782 88.8076 162.695 89.7198C163.607 90.632 164.12 91.8689 164.121 93.159V115.737C164.12 117.027 163.607 118.264 162.695 119.176C161.782 120.089 160.545 120.602 159.255 120.603Z" fill="#4A4AAB"/>
<path d="M42.8608 170.822H18.7254C17.4353 170.821 16.1984 170.307 15.2862 169.395C14.374 168.483 13.8608 167.246 13.8594 165.956V143.378C13.8608 142.088 14.374 140.851 15.2862 139.939C16.1984 139.026 17.4353 138.513 18.7254 138.512H42.8608C44.1509 138.513 45.3877 139.026 46.3 139.939C47.2122 140.851 47.7253 142.088 47.7268 143.378V165.956C47.7253 167.246 47.2122 168.483 46.3 169.395C45.3877 170.307 44.1509 170.821 42.8608 170.822Z" fill="#526EFF"/>
<path d="M101.058 171.017H76.9226C75.6325 171.016 74.3957 170.503 73.4835 169.591C72.5712 168.678 72.0581 167.441 72.0566 166.151V143.573C72.0581 142.283 72.5712 141.046 73.4835 140.134C74.3957 139.222 75.6325 138.708 76.9226 138.707H101.058C102.348 138.708 103.585 139.222 104.497 140.134C105.409 141.046 105.923 142.283 105.924 143.573V166.151C105.923 167.441 105.409 168.678 104.497 169.591C103.585 170.503 102.348 171.016 101.058 171.017Z" fill="#4A4AAB"/>
<path d="M159.255 171.209H135.12C133.83 171.207 132.593 170.694 131.681 169.782C130.768 168.87 130.255 167.633 130.254 166.343V143.764C130.255 142.474 130.768 141.238 131.681 140.325C132.593 139.413 133.83 138.9 135.12 138.898H159.255C160.545 138.9 161.782 139.413 162.695 140.325C163.607 141.238 164.12 142.474 164.121 143.764V166.343C164.12 167.633 163.607 168.87 162.695 169.782C161.782 170.694 160.545 171.207 159.255 171.209Z" fill="#4A4AAB"/>
<path d="M218.339 209.155L199.662 224.443C198.663 225.259 197.381 225.645 196.097 225.517C194.814 225.389 193.633 224.757 192.815 223.76L178.513 206.288C177.697 205.289 177.311 204.007 177.439 202.723C177.567 201.44 178.199 200.259 179.197 199.441L197.873 184.153C198.872 183.337 200.154 182.951 201.438 183.079C202.722 183.207 203.902 183.839 204.72 184.836L219.022 202.308C219.838 203.307 220.224 204.589 220.096 205.873C219.968 207.156 219.336 208.337 218.339 209.155Z" fill="#2F69AF"/>
<path d="M171.351 239.863L170.989 231.711C167.209 229.69 162.993 228.623 158.707 228.602C164.606 233.424 163.869 242.72 167.868 249.206C169.131 251.219 170.83 252.922 172.841 254.189C174.851 255.456 177.121 256.254 179.482 256.525L184.418 259.547C185.096 255.771 184.946 251.893 183.981 248.18C183.015 244.468 181.256 241.008 178.824 238.041C177.444 236.39 175.861 234.919 174.113 233.663C172.931 236.781 171.351 239.863 171.351 239.863Z" fill="#F2F2F2"/>
<path d="M202.565 184.37C202.969 184.039 203.296 183.624 203.522 183.153C203.748 182.682 203.869 182.168 203.874 181.646C203.88 181.123 203.771 180.606 203.556 180.131C203.34 179.655 203.023 179.233 202.626 178.893L210.7 157.785L204.248 159.152L197.397 179.455C196.87 180.159 196.62 181.032 196.694 181.908C196.768 182.784 197.161 183.602 197.798 184.208C198.435 184.814 199.272 185.165 200.151 185.195C201.03 185.224 201.889 184.931 202.565 184.37Z" fill="#FFB8B8"/>
<path d="M199.241 161.255L206.489 131.098L209.604 122.332C209.857 121.62 210.248 120.965 210.755 120.405C211.262 119.846 211.875 119.392 212.558 119.07C213.241 118.748 213.982 118.564 214.736 118.529C215.491 118.495 216.245 118.61 216.954 118.868C217.886 119.209 218.713 119.786 219.356 120.541C219.999 121.296 220.435 122.205 220.623 123.179L221.402 127.28L206.891 178.027L206.858 178.142L197.409 177.507L199.241 161.255Z" fill="#2F2E41"/>
<path d="M228.659 110.91L212.52 143.548L202.311 178.254C223.82 182.448 250.81 191.42 252.752 178.552C251.555 142.674 247.784 131.23 239.999 115.677L228.659 110.91Z" fill="#2F2E41"/>
<path d="M214.22 254.702L209.153 254.702L206.742 235.156L214.221 235.157L214.22 254.702Z" fill="#FFB6B6"/>
<path d="M215.513 259.612L199.174 259.612V259.405C199.174 257.718 199.844 256.101 201.037 254.908C202.229 253.716 203.847 253.046 205.534 253.046H205.534L208.519 250.781L214.087 253.046L215.513 253.046L215.513 259.612Z" fill="#2F2E41"/>
<path d="M260.008 248.115L255.472 250.375L244.596 233.957L251.289 230.621L260.008 248.115Z" fill="#FFB6B6"/>
<path d="M263.356 251.932L248.733 259.22L248.64 259.035C247.888 257.526 247.766 255.779 248.302 254.18C248.837 252.58 249.986 251.259 251.495 250.506L251.496 250.506L253.157 247.148L259.151 246.691L260.427 246.055L263.356 251.932Z" fill="#2F2E41"/>
<path d="M211.975 165.934L239.918 166.912L242.007 170.792C242.007 170.792 244.195 186.666 243.075 187.787C241.954 188.908 241.393 188.908 241.954 190.869C242.514 192.83 243.963 211.569 243.963 211.569C243.963 211.569 255.506 235.511 256.066 236.912C256.626 238.313 257.187 237.753 256.626 238.313C256.13 238.848 255.662 239.409 255.225 239.994H246.093C246.093 239.994 241.176 227.59 236.674 222.792C232.7 218.556 230.183 213.161 229.491 207.393L225.704 189.468L217.579 216.925C217.579 216.925 216.178 244.101 216.458 245.502L216.738 246.903L205.974 247.023C205.974 247.023 204.854 244.662 205.414 243.821C205.974 242.981 205.941 243.21 205.257 241.835C204.574 240.459 204.854 238.129 204.854 238.129C204.854 238.129 208.894 183.024 208.894 182.184C208.915 181.751 208.835 181.32 208.661 180.923V179.782L209.734 175.74L211.975 165.934Z" fill="#2F2E41"/>
<path d="M230.55 115.75L228.649 111.199L222.762 111.303L216.624 119.985L210.182 147.078C210.182 147.078 207.868 166.87 210.182 167.914C212.496 168.959 240.515 168.403 240.515 168.403C239.218 157.715 238.251 146.842 237.232 140.347C233.864 118.88 232.275 123.398 230.55 115.75Z" fill="#2F69AF"/>
<path d="M222.762 111.301C222.762 111.301 210.082 118.631 209.586 122.457C209.09 126.283 207.43 173.113 207.43 173.113L211.914 170.215L213.139 153.148C212.285 137.981 214.37 126.677 218.612 118.203L222.762 111.301Z" fill="#2F2E41"/>
<path d="M225.755 109.17C230.528 109.17 234.397 105.301 234.397 100.529C234.397 95.7558 230.528 91.8867 225.755 91.8867C220.982 91.8867 217.113 95.7558 217.113 100.529C217.113 105.301 220.982 109.17 225.755 109.17Z" fill="#FFB8B8"/>
<path d="M236.404 100.016C236.018 101.767 235.321 103.434 234.348 104.94C234.09 105.454 233.704 105.892 233.227 106.213C232.986 106.368 232.698 106.433 232.413 106.398C232.129 106.362 231.866 106.228 231.67 106.018L231.46 105.847C231.872 105.593 232.24 105.274 232.55 104.901C232.703 104.714 232.809 104.494 232.86 104.257C232.911 104.021 232.905 103.776 232.842 103.543C232.767 103.313 232.606 103.12 232.393 103.006C232.179 102.892 231.93 102.866 231.697 102.931C231.191 103.13 230.884 103.862 230.354 103.749C229.926 103.656 229.836 103.091 229.836 102.647C229.852 100.327 228.731 97.03 227.863 97.1312C226.986 97.1792 226.108 97.0616 225.274 96.7848C224.439 96.5074 223.559 96.395 222.681 96.4539C222.619 96.4617 222.557 96.4733 222.491 96.485C222.35 96.0442 222.157 95.622 221.914 95.2276C221.942 95.7037 221.918 96.1813 221.844 96.6524C221.146 96.9402 220.425 97.1681 219.688 97.3336C218.886 97.4465 217.122 99.8445 217.041 99.5993C216.9 99.1584 216.707 98.7362 216.465 98.3419C216.492 98.8179 216.468 99.2956 216.394 99.7666C216.391 99.7861 216.391 99.8017 216.387 99.8211C215.997 99.3034 215.76 98.6728 215.892 99.1555C214.588 96.2048 215.094 94.0909 217.146 91.6034C217.546 91.0686 218.075 90.644 218.683 90.3694C218.988 90.2355 219.323 90.1823 219.654 90.2151C219.985 90.2478 220.303 90.3653 220.575 90.5563C221.412 89.7891 222.439 89.2597 223.549 89.0229C224.659 88.786 225.813 88.8504 226.89 89.2094C229.027 89.9529 230.673 90.3889 231 92.6311C232.768 92.347 234.586 93.3513 235.559 94.85C236.48 96.4045 236.781 98.2489 236.404 100.016Z" fill="#2F2E41"/>
<path d="M260.619 182.241C260.813 181.756 260.899 181.235 260.87 180.713C260.841 180.192 260.698 179.683 260.451 179.223C260.204 178.763 259.859 178.363 259.441 178.05C259.023 177.738 258.541 177.521 258.03 177.415L254.914 155.031L249.922 159.342L253.721 180.431C253.599 181.302 253.802 182.187 254.289 182.918C254.777 183.65 255.516 184.177 256.366 184.4C257.216 184.623 258.119 184.527 258.903 184.129C259.687 183.731 260.297 183.059 260.619 182.241Z" fill="#FFB8B8"/>
<path d="M251.422 174.021L232.901 124.468L233.354 120.319C233.464 119.333 233.827 118.392 234.408 117.588C234.989 116.785 235.769 116.145 236.67 115.731C237.357 115.417 238.1 115.243 238.855 115.218C239.609 115.193 240.362 115.317 241.068 115.584C241.775 115.851 242.422 116.255 242.971 116.773C243.521 117.291 243.963 117.913 244.271 118.602L248.075 127.11L257.684 156.602L260.791 172.641L251.422 174.021Z" fill="#2F2E41"/>
<path d="M302 259.937C302 260.016 301.985 260.095 301.954 260.168C301.924 260.242 301.88 260.309 301.823 260.365C301.767 260.421 301.7 260.465 301.627 260.496C301.553 260.526 301.475 260.542 301.395 260.541H138.656C138.496 260.541 138.342 260.478 138.229 260.364C138.115 260.251 138.052 260.097 138.052 259.937C138.052 259.776 138.115 259.623 138.229 259.509C138.342 259.396 138.496 259.332 138.656 259.332H301.395C301.475 259.332 301.553 259.347 301.627 259.378C301.7 259.408 301.767 259.452 301.823 259.509C301.88 259.565 301.924 259.632 301.954 259.705C301.985 259.778 302 259.857 302 259.937Z" fill="#CCCCCC"/>
<path d="M177.536 13.4222H0.688446C0.504522 13.4182 0.329455 13.3424 0.200764 13.211C0.0720735 13.0795 0 12.9029 0 12.7189C0 12.5349 0.0720735 12.3583 0.200764 12.2268C0.329455 12.0954 0.504522 12.0195 0.688446 12.0156H177.536C177.72 12.0195 177.895 12.0954 178.024 12.2268C178.152 12.3583 178.224 12.5349 178.224 12.7189C178.224 12.9029 178.152 13.0795 178.024 13.211C177.895 13.3424 177.72 13.4182 177.536 13.4222Z" fill="#CACACA"/>
<path d="M12.726 8.42672C15.0023 8.42672 16.8475 6.54033 16.8475 4.21336C16.8475 1.88639 15.0023 0 12.726 0C10.4498 0 8.60449 1.88639 8.60449 4.21336C8.60449 6.54033 10.4498 8.42672 12.726 8.42672Z" fill="#3F3D56"/>
<path d="M26.9643 8.42672C29.2405 8.42672 31.0858 6.54033 31.0858 4.21336C31.0858 1.88639 29.2405 0 26.9643 0C24.688 0 22.8428 1.88639 22.8428 4.21336C22.8428 6.54033 24.688 8.42672 26.9643 8.42672Z" fill="#3F3D56"/>
<path d="M41.2016 8.42672C43.4778 8.42672 45.3231 6.54033 45.3231 4.21336C45.3231 1.88639 43.4778 0 41.2016 0C38.9253 0 37.0801 1.88639 37.0801 4.21336C37.0801 6.54033 38.9253 8.42672 41.2016 8.42672Z" fill="#3F3D56"/>
<path d="M168.962 1.04297H158.848C158.648 1.04694 158.457 1.12936 158.317 1.27254C158.176 1.41573 158.098 1.60825 158.098 1.80877C158.098 2.00929 158.176 2.20182 158.317 2.345C158.457 2.48818 158.648 2.57061 158.848 2.57457H168.962C169.163 2.57061 169.354 2.48818 169.494 2.345C169.635 2.20182 169.713 2.00929 169.713 1.80877C169.713 1.60825 169.635 1.41573 169.494 1.27254C169.354 1.12936 169.163 1.04694 168.962 1.04297Z" fill="#3F3D56"/>
<path d="M168.962 3.91797H158.848C158.648 3.92194 158.457 4.00436 158.317 4.14754C158.176 4.29073 158.098 4.48325 158.098 4.68377C158.098 4.88429 158.176 5.07681 158.317 5.22C158.457 5.36318 158.648 5.44561 158.848 5.44958H168.962C169.163 5.44561 169.354 5.36318 169.494 5.22C169.635 5.07681 169.713 4.88429 169.713 4.68377C169.713 4.48325 169.635 4.29073 169.494 4.14754C169.354 4.00436 169.163 3.92194 168.962 3.91797Z" fill="#3F3D56"/>
<path d="M168.962 6.78906H158.848C158.648 6.79303 158.457 6.87546 158.317 7.01864C158.176 7.16183 158.098 7.35435 158.098 7.55486C158.098 7.75538 158.176 7.94791 158.317 8.09109C158.457 8.23428 158.648 8.3167 158.848 8.32067H168.962C169.163 8.3167 169.354 8.23428 169.494 8.09109C169.635 7.94791 169.713 7.75538 169.713 7.55486C169.713 7.35435 169.635 7.16183 169.494 7.01864C169.354 6.87546 169.163 6.79303 168.962 6.78906Z" fill="#3F3D56"/>
</g>
<defs>
<clipPath id="clip0_2189_132745">
<rect width="302" height="260.539" fill="white"/>
</clipPath>
</defs>
</svg>
