<svg width="324" height="247" viewBox="0 0 324 247" fill="none" xmlns="http://www.w3.org/2000/svg">
<g clip-path="url(#clip0_2189_132826)">
<path d="M115.26 57.3607C115.125 57.3605 114.996 57.3094 114.897 57.2177C114.799 57.1259 114.739 57.0003 114.73 56.8661C114.382 52.1417 112.263 47.7227 108.797 44.4936C105.331 41.2644 100.773 39.4632 96.036 39.4505C95.4691 39.4505 94.8736 39.4793 94.2658 39.5362C94.1642 39.5457 94.0619 39.5258 93.9713 39.4788C93.8807 39.4318 93.8055 39.3597 93.7548 39.2711C91.5787 35.4622 88.3292 32.3785 84.4116 30.4048C80.494 28.4312 76.082 27.6549 71.726 28.173C67.3701 28.6911 63.2632 30.4805 59.9178 33.318C56.5724 36.1554 54.1368 39.9153 52.9148 44.1283C52.8826 44.2412 52.8137 44.3402 52.719 44.4096C52.6243 44.4791 52.5093 44.5151 52.3919 44.512L52.2505 44.5077C52.1769 44.5052 52.1034 44.5026 52.0293 44.5026C48.4362 44.5139 44.9549 45.7533 42.1631 48.0154C39.3713 50.2774 37.4368 53.4259 36.6806 56.9386C36.6555 57.058 36.59 57.1651 36.4953 57.2419C36.4005 57.3188 36.2822 57.3607 36.1603 57.3607H0.532348C0.391549 57.3603 0.256646 57.3041 0.157219 57.2045C0.0577907 57.1048 0.00195312 56.9697 0.00195312 56.8289C0.00195312 56.6881 0.0577907 56.5531 0.157219 56.4534C0.256646 56.3537 0.391549 56.2975 0.532348 56.2971H35.7347C36.6208 52.6434 38.7053 49.3918 41.6555 47.0613C44.6056 44.7307 48.2513 43.4555 52.0109 43.4391C53.3494 39.1097 55.9163 35.2621 59.3998 32.3639C62.8834 29.4656 67.1337 27.6414 71.6343 27.1128C76.1349 26.5843 80.6922 27.3741 84.7524 29.3864C88.8127 31.3986 92.2012 34.5467 94.5063 38.4482C95.0294 38.4074 95.5426 38.3869 96.036 38.3869C101.042 38.4005 105.859 40.304 109.521 43.7165C113.184 47.1291 115.423 51.7989 115.791 56.7916C115.796 56.8613 115.787 56.9313 115.765 56.9975C115.743 57.0638 115.708 57.125 115.662 57.1777C115.616 57.2304 115.56 57.2736 115.498 57.3048C115.435 57.336 115.367 57.3545 115.297 57.3594C115.285 57.3603 115.272 57.3607 115.26 57.3607Z" fill="#CBCBCB"/>
<path d="M108.932 64.1769H21.7164C21.5753 64.1769 21.4401 64.1209 21.3403 64.0211C21.2406 63.9214 21.1846 63.7861 21.1846 63.6451C21.1846 63.504 21.2406 63.3688 21.3403 63.269C21.4401 63.1693 21.5753 63.1133 21.7164 63.1133H108.932C109.073 63.1133 109.208 63.1693 109.308 63.269C109.408 63.3688 109.464 63.504 109.464 63.6451C109.464 63.7861 109.408 63.9214 109.308 64.0211C109.208 64.1209 109.073 64.1769 108.932 64.1769Z" fill="#CBCBCB"/>
<path d="M42.9885 71.8878H13.7393C13.6693 71.888 13.6 71.8744 13.5353 71.8478C13.4706 71.8211 13.4118 71.782 13.3623 71.7326C13.3128 71.6832 13.2735 71.6245 13.2467 71.5599C13.2199 71.4953 13.2061 71.426 13.2061 71.356C13.2061 71.2861 13.2199 71.2168 13.2467 71.1522C13.2735 71.0876 13.3128 71.0289 13.3623 70.9795C13.4118 70.9301 13.4706 70.8909 13.5353 70.8643C13.6 70.8377 13.6693 70.824 13.7393 70.8242H42.9885C43.1293 70.8246 43.2642 70.8808 43.3636 70.9805C43.463 71.0802 43.5189 71.2152 43.5189 71.356C43.5189 71.4968 43.463 71.6319 43.3636 71.7316C43.2642 71.8313 43.1293 71.8875 42.9885 71.8878Z" fill="#CBCBCB"/>
<path d="M70.3347 175.363C70.3347 196.984 47.6681 207.329 47.6681 207.329C47.6681 207.329 24.769 196.984 24.304 175.363C24.0307 162.655 34.6083 152.348 47.3194 152.348C50.3418 152.348 53.3346 152.943 56.127 154.1C58.9193 155.256 61.4565 156.952 63.5937 159.089C65.7309 161.226 67.4262 163.763 68.5828 166.555C69.7394 169.348 70.3347 172.341 70.3347 175.363Z" fill="#E5E5E5"/>
<path d="M55.3394 208.607H39.9957L38.1357 201.168H57.199L55.3394 208.607Z" fill="#CBCBCB"/>
<path d="M54.817 221.328H40.5195V228.779H54.817V221.328Z" fill="white"/>
<path d="M54.9333 228.898H40.4033V221.215H54.9333V228.898ZM40.6358 228.666H54.7008V221.447H40.6358V228.666Z" fill="#CBCBCB"/>
<path d="M50.5986 209.483H44.7371L44.0645 208.426H51.2712L50.5986 209.483Z" fill="#CBCBCB"/>
<path d="M40.3448 208.609H40.1123V220.001H40.3448V208.609Z" fill="#CBCBCB"/>
<path d="M55.2237 208.609H54.9912V220.001H55.2237V208.609Z" fill="#CBCBCB"/>
<path d="M49.9984 201.044L49.8564 200.86C56.5726 195.681 64.5784 186.808 64.5784 173.95C64.5838 169.447 63.2594 165.043 60.7714 161.289C58.2833 157.535 54.7424 154.6 50.5926 152.851L50.6832 152.637C54.8751 154.404 58.4519 157.369 60.9652 161.16C63.4785 164.952 64.8163 169.401 64.8109 173.95C64.8109 186.903 56.7558 195.833 49.9984 201.044Z" fill="#CBCBCB"/>
<path d="M42.5589 201.042L42.417 200.858C49.1331 195.679 57.1391 186.806 57.1391 173.948C57.1409 169.475 55.8324 165.1 53.3752 161.362C50.918 157.624 47.4197 154.688 43.3125 152.917L43.4047 152.703C47.5536 154.493 51.0873 157.459 53.5695 161.234C56.0516 165.01 57.3734 169.43 57.3716 173.948C57.3716 186.9 49.3164 195.831 42.5589 201.042Z" fill="#CBCBCB"/>
<path d="M52.0791 201.042C45.3217 195.831 37.2666 186.901 37.2666 173.948C37.2648 169.43 38.5866 165.01 41.0687 161.234C43.5509 157.459 47.0847 154.493 51.2336 152.703L51.3258 152.917C47.2186 154.688 43.7203 157.624 41.263 161.362C38.8058 165.1 37.4973 169.475 37.4991 173.948C37.4991 186.806 45.505 195.679 52.2211 200.858L52.0791 201.042Z" fill="#CBCBCB"/>
<path d="M44.6407 201.041C37.8833 195.83 29.8282 186.9 29.8282 173.947C29.8206 169.38 31.1678 164.914 33.6994 161.113C36.231 157.312 39.8332 154.347 44.0502 152.594L44.1399 152.808C39.9652 154.544 36.3992 157.479 33.893 161.242C31.3868 165.004 30.0531 169.426 30.0606 173.947C30.0606 186.805 38.0665 195.678 44.7826 200.857L44.6407 201.041Z" fill="#CBCBCB"/>
<path d="M47.4356 152.348H47.2031V201.168H47.4356V152.348Z" fill="#CBCBCB"/>
<path d="M44.6995 219.643L40.4365 223.906L40.6009 224.071L44.8639 219.808L44.6995 219.643Z" fill="#CBCBCB"/>
<path d="M46.7725 219.57L40.4355 226.234L40.604 226.395L46.941 219.73L46.7725 219.57Z" fill="#CBCBCB"/>
<path d="M56.1537 219.648H38.7178V221.741H56.1537V219.648Z" fill="white"/>
<path d="M56.269 221.86H38.6006V219.535H56.269V221.86ZM38.8331 221.627H56.0365V219.768H38.8331V221.627Z" fill="#CBCBCB"/>
<path d="M114.201 120.57C114.201 134.841 99.2402 141.669 99.2402 141.669C99.2402 141.669 84.1257 134.841 83.8188 120.57C83.6385 112.182 90.6202 105.379 99.01 105.379C103.039 105.379 106.903 106.979 109.752 109.828C112.601 112.677 114.201 116.541 114.201 120.57Z" fill="#E5E5E5"/>
<path d="M104.304 142.512H94.1766L92.9492 137.602H105.532L104.304 142.512Z" fill="#CBCBCB"/>
<path d="M103.958 150.91H94.5215V155.828H103.958V150.91Z" fill="white"/>
<path d="M104.035 155.907H94.4443V150.836H104.035V155.907ZM94.5978 155.754H103.881V150.989H94.5978V155.754Z" fill="#CBCBCB"/>
<path d="M101.174 143.092H97.3053L96.8613 142.395H101.618L101.174 143.092Z" fill="#CBCBCB"/>
<path d="M94.4074 142.512H94.2539V150.031H94.4074V142.512Z" fill="#CBCBCB"/>
<path d="M104.227 142.512H104.073V150.031H104.227V142.512Z" fill="#CBCBCB"/>
<path d="M100.778 137.521L100.685 137.4C105.117 133.981 110.402 128.125 110.402 119.638C110.405 116.666 109.531 113.759 107.889 111.281C106.247 108.804 103.91 106.866 101.17 105.712L101.23 105.57C103.997 106.737 106.358 108.694 108.017 111.196C109.676 113.699 110.559 116.636 110.555 119.638C110.555 128.187 105.238 134.082 100.778 137.521Z" fill="#CBCBCB"/>
<path d="M95.8681 137.519L95.7744 137.398C100.207 133.979 105.492 128.123 105.492 119.636C105.493 116.684 104.629 113.795 103.007 111.328C101.385 108.861 99.0764 106.924 96.3655 105.754L96.4264 105.613C99.1648 106.795 101.497 108.752 103.136 111.244C104.774 113.736 105.646 116.654 105.645 119.636C105.645 128.185 100.328 134.08 95.8681 137.519Z" fill="#CBCBCB"/>
<path d="M102.152 137.519C97.6917 134.08 92.375 128.185 92.375 119.636C92.3738 116.654 93.2462 113.736 94.8846 111.244C96.5229 108.752 98.8554 106.795 101.594 105.613L101.655 105.754C98.9437 106.924 96.6347 108.861 95.0128 111.328C93.3909 113.795 92.5272 116.684 92.5284 119.636C92.5284 128.123 97.8127 133.979 102.246 137.398L102.152 137.519Z" fill="#CBCBCB"/>
<path d="M97.2418 137.52C92.7816 134.081 87.4649 128.186 87.4649 119.637C87.4599 116.623 88.3491 113.675 90.0201 111.166C91.691 108.657 94.0687 106.7 96.8521 105.543L96.9112 105.685C94.1558 106.83 91.802 108.767 90.1478 111.251C88.4936 113.735 87.6133 116.653 87.6183 119.637C87.6183 128.124 92.9026 133.98 97.3355 137.399L97.2418 137.52Z" fill="#CBCBCB"/>
<path d="M99.0861 105.379H98.9326V137.603H99.0861V105.379Z" fill="#CBCBCB"/>
<path d="M97.2806 149.796L94.4668 152.609L94.5753 152.718L97.389 149.904L97.2806 149.796Z" fill="#CBCBCB"/>
<path d="M98.6495 149.749L94.4668 154.148L94.578 154.254L98.7607 149.855L98.6495 149.749Z" fill="#CBCBCB"/>
<path d="M104.841 149.801H93.333V151.182H104.841V149.801Z" fill="white"/>
<path d="M104.918 151.261H93.2559V149.727H104.918V151.261ZM93.4093 151.108H104.764V149.88H93.4093V151.108Z" fill="#CBCBCB"/>
<path d="M241.384 140.081C241.48 140.081 241.573 140.044 241.643 139.978C241.714 139.913 241.757 139.823 241.763 139.726C242.013 136.34 243.531 133.173 246.016 130.858C248.5 128.543 251.767 127.252 255.163 127.243C255.569 127.243 255.996 127.264 256.432 127.305C256.505 127.311 256.578 127.297 256.643 127.263C256.708 127.23 256.762 127.178 256.798 127.115C258.358 124.384 260.687 122.174 263.495 120.759C266.303 119.345 269.466 118.788 272.588 119.16C275.71 119.531 278.654 120.814 281.052 122.847C283.45 124.881 285.196 127.576 286.072 130.596C286.095 130.677 286.144 130.748 286.212 130.798C286.28 130.848 286.362 130.873 286.446 130.871L286.548 130.868C286.601 130.866 286.653 130.864 286.706 130.864C289.282 130.872 291.777 131.761 293.778 133.382C295.779 135.004 297.166 137.261 297.708 139.778C297.726 139.864 297.773 139.941 297.841 139.996C297.909 140.051 297.994 140.081 298.081 140.081H323.619C323.669 140.081 323.719 140.071 323.765 140.052C323.811 140.033 323.854 140.005 323.889 139.97C323.925 139.934 323.953 139.892 323.972 139.846C323.991 139.8 324.001 139.75 324.001 139.7C324.001 139.65 323.991 139.6 323.972 139.554C323.953 139.507 323.925 139.465 323.889 139.43C323.854 139.394 323.811 139.366 323.765 139.347C323.719 139.328 323.669 139.318 323.619 139.319H298.386C297.751 136.7 296.257 134.369 294.142 132.698C292.028 131.028 289.414 130.114 286.719 130.102C285.76 126.999 283.92 124.241 281.423 122.164C278.926 120.086 275.88 118.779 272.654 118.4C269.428 118.021 266.161 118.587 263.251 120.029C260.34 121.472 257.912 123.728 256.259 126.525C255.884 126.495 255.517 126.481 255.163 126.481C251.574 126.49 248.122 127.855 245.497 130.301C242.871 132.747 241.266 136.094 241.003 139.673C240.999 139.723 241.006 139.773 241.022 139.821C241.037 139.868 241.063 139.912 241.095 139.95C241.128 139.988 241.168 140.019 241.213 140.041C241.258 140.063 241.307 140.077 241.356 140.08C241.366 140.081 241.375 140.081 241.384 140.081Z" fill="#CBCBCB"/>
<path d="M245.919 144.969H308.434C308.536 144.969 308.632 144.929 308.704 144.858C308.775 144.786 308.816 144.689 308.816 144.588C308.816 144.487 308.775 144.39 308.704 144.319C308.632 144.247 308.536 144.207 308.434 144.207H245.919C245.818 144.207 245.721 144.247 245.65 144.319C245.578 144.39 245.538 144.487 245.538 144.588C245.538 144.689 245.578 144.786 245.65 144.858C245.721 144.929 245.818 144.969 245.919 144.969Z" fill="#CBCBCB"/>
<path d="M293.187 150.493H314.152C314.253 150.493 314.35 150.452 314.421 150.381C314.492 150.309 314.532 150.213 314.532 150.112C314.532 150.011 314.492 149.914 314.421 149.843C314.35 149.771 314.253 149.731 314.152 149.73H293.187C293.137 149.73 293.087 149.74 293.041 149.759C292.995 149.779 292.953 149.807 292.917 149.842C292.882 149.878 292.854 149.92 292.835 149.966C292.816 150.012 292.806 150.062 292.806 150.112C292.806 150.162 292.816 150.211 292.835 150.258C292.854 150.304 292.882 150.346 292.917 150.381C292.953 150.417 292.995 150.445 293.041 150.464C293.087 150.483 293.137 150.493 293.187 150.493Z" fill="#CBCBCB"/>
<path d="M195.765 242.472H194.51L193.913 237.633H195.765V242.472Z" fill="#9F616A"/>
<path d="M196.086 243.688H192.04V243.637C192.041 243.22 192.207 242.82 192.502 242.524C192.797 242.229 193.197 242.063 193.615 242.062H196.086V243.688Z" fill="#2F2E41"/>
<path d="M211.947 240.094L210.871 240.74L207.867 236.899L209.455 235.945L211.947 240.094Z" fill="#9F616A"/>
<path d="M209.38 243.056L209.353 243.012C209.139 242.654 209.075 242.225 209.176 241.82C209.277 241.415 209.534 241.066 209.892 240.851L212.01 239.578L212.848 240.972L209.38 243.056Z" fill="#2F2E41"/>
<path d="M196.091 241.473L196.07 241.473C195.459 241.471 194.85 241.436 194.243 241.368C194.012 241.345 193.761 241.32 193.459 241.296L193.448 241.294C193.242 241.232 193.237 239.299 193.324 232.68C193.369 229.29 193.419 225.448 193.359 223.001L193.358 222.977L193.377 222.961C194.468 222.005 195.77 221.32 197.177 220.963C198.584 220.605 200.055 220.586 201.471 220.906L201.493 220.911L201.504 220.931C202.737 223.017 204.599 226.023 206.4 228.929C210.534 235.602 211.716 237.564 211.586 237.712L211.571 237.724C211.288 237.865 211.076 237.974 210.896 238.066C210.183 238.436 209.45 238.766 208.701 239.056L208.668 239.07L208.644 239.043C204.45 234.448 200.96 229.314 198.801 224.568C198.549 226.188 198.242 228.304 197.919 230.539C196.988 236.967 196.36 241.2 196.107 241.458L196.091 241.473Z" fill="#2F2E41"/>
<path d="M197.222 223.494C199.723 223.483 202.208 223.899 204.569 224.724C204.651 220.761 203.322 216.897 200.82 213.822L200.802 213.8L200.811 213.773C201.47 211.869 202.151 209.901 202.759 207.943L202.75 207.91C202.323 206.393 201.407 204.86 199.95 203.223C199.792 203.059 199.577 202.962 199.35 202.95C199.123 202.939 198.899 203.014 198.725 203.161C197.448 204.329 196.454 205.772 195.817 207.381C195.18 208.99 194.917 210.723 195.049 212.448L195.05 212.458L195.047 212.467C193.906 216.334 193.492 218.32 193.126 220.072C192.859 221.35 192.629 222.457 192.165 224.039C193.827 223.677 195.522 223.495 197.222 223.494Z" fill="#CBCBCB"/>
<path opacity="0.1" d="M200.903 211.273L197.191 219.356L195.069 217.209L200.903 211.273Z" fill="black"/>
<path d="M199.316 202.435C200.775 202.435 201.958 201.253 201.958 199.794C201.958 198.335 200.775 197.152 199.316 197.152C197.857 197.152 196.675 198.335 196.675 199.794C196.675 201.253 197.857 202.435 199.316 202.435Z" fill="#9F616A"/>
<path d="M196.114 198.306H200.309V196.477C199.388 196.112 198.487 195.801 197.943 196.477C197.458 196.477 196.993 196.67 196.65 197.013C196.307 197.356 196.114 197.821 196.114 198.306Z" fill="#2F2E41"/>
<path d="M200.54 196.152C203.048 196.152 203.75 199.295 203.75 201.069C203.75 202.057 203.302 202.411 202.6 202.531L202.352 201.207L201.77 202.588C201.573 202.589 201.366 202.585 201.151 202.581L200.953 202.175L200.514 202.574C198.754 202.576 197.331 202.833 197.331 201.069C197.331 199.295 197.947 196.152 200.54 196.152Z" fill="#2F2E41"/>
<path d="M276.281 74.1151C276.281 143.738 203.289 177.053 203.289 177.053C203.289 177.053 129.548 143.738 128.051 74.1151C127.171 33.1919 161.233 0 202.166 0C243.099 0 276.281 33.1825 276.281 74.1151Z" fill="#4A4AAB"/>
<path d="M204.855 241.927H203.316L202.584 235.992H204.855V241.927Z" fill="#FFB7B7"/>
<path d="M202.217 241.484H205.184V243.353H200.349C200.349 243.107 200.397 242.864 200.491 242.638C200.585 242.411 200.722 242.205 200.896 242.032C201.069 241.858 201.275 241.72 201.502 241.627C201.729 241.533 201.972 241.484 202.217 241.484Z" fill="#2F2E41"/>
<path d="M210.628 241.927H209.09L208.357 235.992H210.628L210.628 241.927Z" fill="#FFB7B7"/>
<path d="M207.99 241.484H210.958V243.353H206.122C206.122 242.857 206.319 242.382 206.669 242.032C207.02 241.681 207.495 241.484 207.99 241.484Z" fill="#2F2E41"/>
<path d="M210.44 224.252C210.274 224.145 210.134 224.003 210.029 223.837C209.924 223.67 209.856 223.482 209.832 223.287C209.807 223.091 209.825 222.893 209.886 222.705C209.946 222.517 210.047 222.345 210.181 222.201L209.168 207.824L212.086 208.107L212.166 222.186C212.394 222.428 212.525 222.744 212.535 223.076C212.545 223.407 212.433 223.731 212.221 223.986C212.008 224.24 211.709 224.408 211.381 224.457C211.053 224.506 210.718 224.433 210.44 224.252Z" fill="#FFB7B7"/>
<path d="M204.782 238.933L203.089 238.852C202.944 238.845 202.808 238.783 202.708 238.679C202.608 238.575 202.552 238.436 202.551 238.292L202.433 221.155C202.432 221.073 202.449 220.993 202.483 220.919C202.516 220.844 202.565 220.778 202.626 220.725C202.688 220.672 202.76 220.632 202.838 220.609C202.916 220.586 202.998 220.58 203.079 220.592L209.854 221.575C209.988 221.594 210.111 221.661 210.2 221.762C210.289 221.864 210.338 221.995 210.338 222.13L211.21 238.01C211.21 238.084 211.196 238.158 211.168 238.227C211.14 238.296 211.098 238.359 211.046 238.412C210.993 238.465 210.931 238.507 210.862 238.535C210.793 238.564 210.719 238.579 210.645 238.579H208.819C208.684 238.579 208.554 238.531 208.451 238.444C208.349 238.356 208.281 238.235 208.261 238.102C208.261 238.102 206.882 226.191 206.692 226.198C206.502 226.201 205.37 238.436 205.37 238.436C205.353 238.573 205.287 238.699 205.184 238.791C205.08 238.882 204.947 238.933 204.809 238.934C204.8 238.934 204.791 238.933 204.782 238.933Z" fill="#2F2E41"/>
<path d="M209.828 212.654C209.76 212.605 209.704 212.541 209.663 212.467C209.623 212.393 209.6 212.311 209.595 212.227L209.381 208.353C209.36 207.969 209.482 207.591 209.723 207.291C209.964 206.992 210.308 206.792 210.687 206.731C211.067 206.67 211.455 206.751 211.779 206.96C212.102 207.168 212.336 207.489 212.437 207.86L213.376 211.324C213.415 211.469 213.395 211.623 213.321 211.753C213.246 211.883 213.123 211.978 212.979 212.017L210.307 212.741C210.226 212.764 210.14 212.767 210.058 212.752C209.975 212.737 209.896 212.704 209.828 212.654Z" fill="#3F3D56"/>
<path d="M207.332 203.446C209.035 203.446 210.415 202.066 210.415 200.364C210.415 198.661 209.035 197.281 207.332 197.281C205.63 197.281 204.25 198.661 204.25 200.364C204.25 202.066 205.63 203.446 207.332 203.446Z" fill="#FFB7B7"/>
<path d="M209.514 202.801C209.385 202.94 209.219 203.039 209.036 203.087C208.852 203.135 208.659 203.13 208.479 203.072C208.298 203.014 208.138 202.905 208.017 202.76C207.896 202.614 207.82 202.436 207.796 202.248C207.79 202.183 207.79 202.118 207.797 202.053C207.836 201.682 208.05 201.346 207.999 200.954C207.987 200.857 207.951 200.764 207.893 200.685C207.435 200.071 206.359 200.959 205.927 200.404C205.662 200.063 205.974 199.527 205.77 199.146C205.501 198.644 204.706 198.892 204.207 198.616C203.652 198.31 203.685 197.459 204.051 196.941C204.289 196.635 204.591 196.385 204.936 196.209C205.282 196.033 205.662 195.936 206.049 195.923C206.825 195.905 207.595 196.055 208.307 196.364C209.148 196.637 209.89 197.152 210.44 197.843C210.726 198.297 210.906 198.808 210.969 199.34C211.032 199.871 210.977 200.411 210.806 200.918C210.619 201.541 209.983 202.301 209.514 202.801Z" fill="#2F2E41"/>
<path d="M210.409 205.504C210.355 205.465 210.301 205.428 210.245 205.391C209.949 205.194 209.629 205.037 209.292 204.923V204.113H206.907V204.865C206.117 205.083 205.408 205.528 204.869 206.146C204.33 206.764 203.984 207.527 203.875 208.339L202.251 220.393C202.241 220.469 202.246 220.545 202.266 220.619C202.286 220.692 202.321 220.76 202.368 220.82C202.415 220.879 202.472 220.928 202.538 220.964C202.604 221 202.677 221.023 202.751 221.03C203.889 221.177 204.985 221.553 205.974 222.134C206.692 222.532 207.501 222.738 208.322 222.733C208.973 222.73 209.62 222.615 210.232 222.393C210.336 222.355 210.426 222.286 210.492 222.197C210.557 222.107 210.594 222.001 210.599 221.89C210.657 220.593 210.999 213.916 211.995 209.843C212.188 209.044 212.141 208.205 211.859 207.433C211.576 206.661 211.072 205.99 210.409 205.504Z" fill="#3F3D56"/>
<path d="M227.994 181.171H178.584L172.595 157.215H233.983L227.994 181.171Z" fill="#3F3D56"/>
<path d="M226.31 222.141H180.269V246.134H226.31V222.141Z" fill="white"/>
<path d="M226.684 246.508H179.895V221.766H226.684V246.508ZM180.643 245.759H225.936V222.514H180.643V245.759Z" fill="#3F3D56"/>
<path d="M212.726 183.994H193.851L191.685 180.59H214.892L212.726 183.994Z" fill="#3F3D56"/>
<path d="M179.707 181.168H178.958V217.851H179.707V181.168Z" fill="#3F3D56"/>
<path d="M227.62 181.168H226.871V217.851H227.62V181.168Z" fill="#3F3D56"/>
<path d="M210.793 156.81L210.336 156.217C231.963 139.539 257.744 110.966 257.744 69.5612C257.762 55.0594 253.497 40.8754 245.485 28.788C237.473 16.7005 226.07 7.24775 212.707 1.6152L212.998 0.925781C226.497 6.61549 238.016 16.1642 246.109 28.3743C254.202 40.5844 258.51 54.9123 258.493 69.5612C258.493 111.271 232.554 140.029 210.793 156.81Z" fill="#C1272D"/>
<path d="M186.836 156.808L186.379 156.215C208.006 139.537 233.788 110.964 233.788 69.5586C233.793 55.1544 229.58 41.0639 221.667 29.0278C213.754 16.9916 202.489 7.53699 189.263 1.83176L189.56 1.14453C202.92 6.90766 214.3 16.4582 222.293 28.6165C230.286 40.7748 234.542 55.0082 234.536 69.5586C234.536 111.268 208.597 140.027 186.836 156.808Z" fill="#C1272D"/>
<path d="M217.495 156.808C195.734 140.027 169.795 111.268 169.795 69.5587C169.789 55.0083 174.046 40.7748 182.039 28.6164C190.032 16.4581 201.412 6.90754 214.772 1.14453L215.069 1.83175C201.843 7.53689 190.577 16.9915 182.664 29.0277C174.751 41.0639 170.538 55.1544 170.544 69.5587C170.544 110.964 196.324 139.537 217.952 156.215L217.495 156.808Z" fill="#C1272D"/>
<path d="M193.539 156.809C171.778 140.028 145.839 111.27 145.839 69.56C145.815 54.8534 150.153 40.47 158.305 28.2298C166.458 15.9896 178.058 6.44261 191.638 0.796875L191.926 1.48775C178.483 7.07673 166.999 16.5278 158.929 28.645C150.858 40.7623 146.563 55.0011 146.588 69.56C146.588 110.966 172.369 139.538 193.996 156.216L193.539 156.809Z" fill="#C1272D"/>
<path d="M202.54 0H201.791V157.214H202.54V0Z" fill="#3F3D56"/>
<path d="M193.732 216.698L180.004 230.426L180.533 230.955L194.261 217.227L193.732 216.698Z" fill="#3F3D56"/>
<path d="M200.405 216.471L179.998 237.934L180.541 238.449L200.947 216.987L200.405 216.471Z" fill="#3F3D56"/>
<path d="M230.614 216.73H174.466V223.468H230.614V216.73Z" fill="white"/>
<path d="M230.988 223.842H174.092V216.355H230.988V223.842ZM174.84 223.093H230.24V217.104H174.84V223.093Z" fill="#3F3D56"/>
<path d="M192.626 219.864C192.776 219.853 192.922 219.81 193.054 219.737C193.185 219.664 193.299 219.563 193.388 219.441C193.476 219.32 193.536 219.18 193.565 219.032C193.594 218.884 193.589 218.732 193.553 218.586L196.612 216.582L194.867 215.828L192.23 217.847C191.989 217.925 191.784 218.088 191.656 218.307C191.527 218.525 191.483 218.783 191.532 219.031C191.581 219.28 191.719 219.502 191.921 219.655C192.123 219.809 192.373 219.883 192.626 219.864Z" fill="#9F616A"/>
<path d="M195.57 218.42L195.531 218.393C194.803 217.857 193.995 217.303 193.213 216.767L193.166 216.735L193.203 216.692C194.871 214.74 196.542 212.701 198.157 210.728L198.154 210.721L198.169 210.714L198.176 210.706L198.179 210.709L198.189 210.704L198.145 210.707L197.647 206.802C197.4 206.396 197.275 205.928 197.284 205.453C197.294 204.979 197.438 204.516 197.7 204.12C198.003 203.693 198.452 203.392 198.962 203.276C199.472 203.159 200.007 203.235 200.465 203.489C200.69 203.641 200.879 203.841 201.017 204.076C201.155 204.31 201.238 204.572 201.261 204.844C201.293 205.085 201.271 205.331 201.196 205.562C201.121 205.794 200.995 206.006 200.827 206.183C200.999 208.078 201.075 209.981 201.055 211.883L201.055 211.901L201.044 211.916C199.322 214.104 197.43 216.28 195.601 218.385L195.57 218.42Z" fill="#CBCBCB"/>
<path d="M196.163 206.419C196.178 206.486 196.188 206.555 196.193 206.624L201.584 209.734L202.894 208.98L204.291 210.809L201.488 212.807L195.338 207.955C195.087 208.048 194.814 208.062 194.555 207.996C194.295 207.93 194.063 207.786 193.887 207.584C193.711 207.382 193.601 207.132 193.572 206.866C193.542 206.6 193.594 206.332 193.72 206.096C193.847 205.861 194.042 205.669 194.28 205.547C194.518 205.425 194.788 205.379 195.053 205.414C195.318 205.449 195.566 205.564 195.765 205.743C195.963 205.923 196.102 206.158 196.163 206.419Z" fill="#FFB7B7"/>
<path d="M201.777 209.471C201.768 209.387 201.778 209.303 201.806 209.223C201.834 209.144 201.879 209.072 201.939 209.013L204.683 206.268C204.955 205.996 205.317 205.835 205.701 205.815C206.085 205.794 206.463 205.917 206.762 206.159C207.061 206.401 207.259 206.745 207.32 207.125C207.38 207.504 207.298 207.893 207.088 208.215L205.134 211.226C205.053 211.352 204.925 211.44 204.778 211.471C204.632 211.502 204.479 211.474 204.353 211.393L202.031 209.886C201.96 209.84 201.901 209.779 201.857 209.707C201.813 209.636 201.785 209.555 201.777 209.471Z" fill="#3F3D56"/>
<path d="M164.446 182.753C164.349 182.753 164.256 182.716 164.186 182.65C164.115 182.585 164.073 182.494 164.066 182.398C163.817 179.012 162.298 175.844 159.813 173.53C157.329 171.215 154.062 169.924 150.666 169.915C150.26 169.915 149.833 169.936 149.397 169.976C149.325 169.983 149.251 169.969 149.186 169.935C149.121 169.902 149.068 169.85 149.031 169.786C147.471 167.056 145.142 164.846 142.334 163.431C139.526 162.017 136.364 161.46 133.241 161.831C130.119 162.203 127.175 163.485 124.777 165.519C122.379 167.553 120.634 170.248 119.758 173.268C119.735 173.349 119.685 173.42 119.617 173.47C119.549 173.519 119.467 173.545 119.383 173.543L119.281 173.54C119.229 173.538 119.176 173.536 119.123 173.536C116.547 173.544 114.052 174.433 112.051 176.054C110.05 177.676 108.663 179.932 108.121 182.45C108.103 182.536 108.056 182.613 107.988 182.668C107.92 182.723 107.836 182.753 107.748 182.753H82.2105C82.1603 182.753 82.1107 182.743 82.0643 182.724C82.0179 182.705 81.9757 182.677 81.9402 182.642C81.9047 182.606 81.8765 182.564 81.8573 182.518C81.838 182.471 81.8281 182.422 81.8281 182.372C81.8281 182.321 81.838 182.272 81.8573 182.225C81.8765 182.179 81.9047 182.137 81.9402 182.102C81.9757 182.066 82.0179 182.038 82.0643 182.019C82.1107 182 82.1603 181.99 82.2105 181.99H107.443C108.078 179.372 109.572 177.041 111.687 175.37C113.802 173.7 116.415 172.786 119.11 172.774C120.069 169.671 121.909 166.913 124.406 164.835C126.903 162.758 129.95 161.45 133.176 161.072C136.402 160.693 139.668 161.259 142.578 162.701C145.489 164.144 147.918 166.4 149.57 169.197C149.945 169.167 150.313 169.153 150.666 169.153C154.255 169.162 157.707 170.527 160.333 172.973C162.958 175.419 164.563 178.766 164.826 182.345C164.83 182.395 164.823 182.445 164.808 182.493C164.792 182.54 164.767 182.584 164.734 182.622C164.701 182.659 164.661 182.69 164.616 182.713C164.571 182.735 164.523 182.748 164.473 182.752C164.464 182.753 164.455 182.753 164.446 182.753Z" fill="#CBCBCB"/>
<path d="M159.91 187.641H97.3951C97.3449 187.641 97.2952 187.632 97.2488 187.613C97.2025 187.594 97.1603 187.565 97.1248 187.53C97.0892 187.495 97.0611 187.453 97.0418 187.406C97.0226 187.36 97.0127 187.31 97.0127 187.26C97.0127 187.21 97.0226 187.16 97.0418 187.114C97.0611 187.068 97.0892 187.026 97.1248 186.99C97.1603 186.955 97.2025 186.927 97.2488 186.908C97.2952 186.888 97.3449 186.879 97.3951 186.879H159.91C160.011 186.879 160.108 186.919 160.18 186.991C160.251 187.062 160.291 187.159 160.291 187.26C160.291 187.361 160.251 187.458 160.18 187.53C160.108 187.601 160.011 187.641 159.91 187.641Z" fill="#CBCBCB"/>
<path d="M112.643 193.165H91.6773C91.6271 193.165 91.5775 193.155 91.5311 193.136C91.4847 193.117 91.4425 193.089 91.407 193.053C91.3715 193.018 91.3433 192.976 91.3241 192.93C91.3048 192.883 91.2949 192.834 91.2949 192.784C91.2949 192.733 91.3048 192.684 91.3241 192.637C91.3433 192.591 91.3715 192.549 91.407 192.514C91.4425 192.478 91.4847 192.45 91.5311 192.431C91.5775 192.412 91.6271 192.402 91.6773 192.402H112.643C112.693 192.402 112.743 192.412 112.789 192.431C112.835 192.45 112.878 192.478 112.913 192.514C112.949 192.549 112.977 192.591 112.996 192.637C113.015 192.684 113.025 192.733 113.025 192.784C113.025 192.834 113.015 192.883 112.996 192.93C112.977 192.976 112.949 193.018 112.913 193.053C112.878 193.089 112.835 193.117 112.789 193.136C112.743 193.155 112.693 193.165 112.643 193.165Z" fill="#CBCBCB"/>
</g>
<defs>
<clipPath id="clip0_2189_132826">
<rect width="324" height="246.507" fill="white"/>
</clipPath>
</defs>
</svg>
