<svg width="334" height="212" viewBox="0 0 334 212" fill="none" xmlns="http://www.w3.org/2000/svg">
<g clip-path="url(#clip0_2189_132779)">
<path d="M150.157 0.121094H0.0917969V78.9164H150.157V0.121094Z" fill="#F2F2F2"/>
<path d="M150.065 0H0V9.13455H150.065V0Z" fill="#E6E6E6"/>
<path d="M147.348 12.8398H3.48535V74.7652H147.348V12.8398Z" fill="white"/>
<path d="M14.22 6.05332C15.0545 6.05332 15.7311 5.37681 15.7311 4.54228C15.7311 3.70776 15.0545 3.03125 14.22 3.03125C13.3855 3.03125 12.709 3.70776 12.709 4.54228C12.709 5.37681 13.3855 6.05332 14.22 6.05332Z" fill="white"/>
<path d="M19.9563 6.05332C20.7909 6.05332 21.4674 5.37681 21.4674 4.54228C21.4674 3.70776 20.7909 3.03125 19.9563 3.03125C19.1218 3.03125 18.4453 3.70776 18.4453 4.54228C18.4453 5.37681 19.1218 6.05332 19.9563 6.05332Z" fill="white"/>
<path d="M8.47002 6.05332C9.30454 6.05332 9.98105 5.37681 9.98105 4.54228C9.98105 3.70776 9.30454 3.03125 8.47002 3.03125C7.6355 3.03125 6.95898 3.70776 6.95898 4.54228C6.95898 5.37681 7.6355 6.05332 8.47002 6.05332Z" fill="white"/>
<path d="M118.47 30.9844H35.7441V34.6714H118.47V30.9844Z" fill="#F2F2F2"/>
<path d="M65.2398 40.2031H35.7441V43.8901H65.2398V40.2031Z" fill="#F2F2F2"/>
<path d="M94.5051 49.418H35.7441V53.105H94.5051V49.418Z" fill="#F2F2F2"/>
<path d="M175.291 103.316H34.0703V177.467H175.291V103.316Z" fill="#F2F2F2"/>
<path d="M175.204 103.203H33.9834V111.799H175.204V103.203Z" fill="#E6E6E6"/>
<path d="M172.648 114.789H37.0479V173.694H172.648V114.789Z" fill="white"/>
<path d="M47.3653 108.903C48.1507 108.903 48.7873 108.266 48.7873 107.481C48.7873 106.695 48.1507 106.059 47.3653 106.059C46.58 106.059 45.9434 106.695 45.9434 107.481C45.9434 108.266 46.58 108.903 47.3653 108.903Z" fill="white"/>
<path d="M52.7628 108.903C53.5481 108.903 54.1848 108.266 54.1848 107.481C54.1848 106.695 53.5481 106.059 52.7628 106.059C51.9775 106.059 51.3408 106.695 51.3408 107.481C51.3408 108.266 51.9775 108.903 52.7628 108.903Z" fill="white"/>
<path d="M41.9542 108.903C42.7395 108.903 43.3762 108.266 43.3762 107.481C43.3762 106.695 42.7395 106.059 41.9542 106.059C41.1689 106.059 40.5322 106.695 40.5322 107.481C40.5322 108.266 41.1689 108.903 41.9542 108.903Z" fill="white"/>
<path d="M269.565 32.4961H102.053V120.452H269.565V32.4961Z" fill="#E6E6E6"/>
<path d="M269.462 32.3594H101.95V42.5559H269.462V32.3594Z" fill="#2F69AF"/>
<path d="M265.536 45.6875H105.813V115.542H265.536V45.6875Z" fill="white"/>
<path d="M117.823 39.1195C118.755 39.1195 119.51 38.3643 119.51 37.4328C119.51 36.5013 118.755 35.7461 117.823 35.7461C116.892 35.7461 116.137 36.5013 116.137 37.4328C116.137 38.3643 116.892 39.1195 117.823 39.1195Z" fill="white"/>
<path d="M124.227 39.1195C125.158 39.1195 125.913 38.3643 125.913 37.4328C125.913 36.5013 125.158 35.7461 124.227 35.7461C123.295 35.7461 122.54 36.5013 122.54 37.4328C122.54 38.3643 123.295 39.1195 124.227 39.1195Z" fill="white"/>
<path d="M111.405 39.1195C112.337 39.1195 113.092 38.3643 113.092 37.4328C113.092 36.5013 112.337 35.7461 111.405 35.7461C110.474 35.7461 109.719 36.5013 109.719 37.4328C109.719 38.3643 110.474 39.1195 111.405 39.1195Z" fill="white"/>
<path d="M246.99 63.6758H124.524V69.1339H246.99V63.6758Z" fill="#E6E6E6"/>
<path d="M168.189 77.3203H124.524V82.7784H168.189V77.3203Z" fill="#E6E6E6"/>
<path d="M211.512 90.9648H124.524V96.423H211.512V90.9648Z" fill="#E6E6E6"/>
<path d="M154.145 132.27H61.8018V136.385H154.145V132.27Z" fill="#F2F2F2"/>
<path d="M94.7266 142.559H61.8018V146.674H94.7266V142.559Z" fill="#F2F2F2"/>
<path d="M127.394 152.848H61.8018V156.963H127.394V152.848Z" fill="#F2F2F2"/>
<path d="M189.681 33.6875L181.808 38.0491L190.204 35.088L189.681 33.6875Z" fill="white"/>
<path d="M193.23 37.9775C194.383 37.6027 194.707 35.4145 193.952 33.09C193.196 30.7656 191.649 29.185 190.495 29.5597C189.342 29.9345 189.018 32.1227 189.773 34.4471C190.528 36.7716 192.076 38.3522 193.23 37.9775Z" fill="#3F3D56"/>
<path d="M192.369 31.217L197.591 29.332L198.701 32.4064L193.647 35.8202L192.369 31.217Z" fill="#3F3D56"/>
<path d="M196.291 32.7227C196.497 33.4373 196.856 34.0982 197.345 34.6588C197.833 35.2194 198.439 35.666 199.119 35.9673C199.799 36.2686 200.536 36.4171 201.28 36.4025C202.023 36.3879 202.754 36.2105 203.422 35.8827L216.267 48.5982L218.109 39.3879L205.628 28.725C205.003 27.6403 204.002 26.8224 202.814 26.4265C201.626 26.0306 200.335 26.0841 199.184 26.5769C198.033 27.0696 197.103 27.9674 196.57 29.1001C196.037 30.2328 195.938 31.5218 196.291 32.7227Z" fill="#A0616A"/>
<path d="M294.184 112.95C294.674 112.391 295.036 111.731 295.243 111.017C295.451 110.303 295.5 109.552 295.386 108.817C295.272 108.083 294.998 107.382 294.584 106.764C294.17 106.146 293.625 105.627 292.989 105.243L296.744 87.5625L288 90.9912L285.774 107.255C285.199 108.367 285.052 109.652 285.361 110.865C285.67 112.078 286.413 113.136 287.45 113.838C288.486 114.54 289.744 114.837 290.985 114.673C292.227 114.51 293.365 113.896 294.184 112.95Z" fill="#A0616A"/>
<path d="M251.866 205.091H245.665L242.715 181.172L251.867 181.172L251.866 205.091Z" fill="#A0616A"/>
<path d="M253.448 211.102L233.453 211.102V210.849C233.453 209.827 233.654 208.815 234.046 207.871C234.437 206.926 235.01 206.068 235.733 205.346C236.455 204.623 237.313 204.05 238.257 203.659C239.202 203.268 240.214 203.066 241.236 203.066H241.236L253.448 203.067L253.448 211.102Z" fill="#2F2E41"/>
<path d="M282.214 205.091H276.014L273.063 181.172L282.216 181.172L282.214 205.091Z" fill="#A0616A"/>
<path d="M283.796 211.102L263.802 211.102V210.849C263.802 209.827 264.003 208.815 264.394 207.871C264.785 206.926 265.358 206.068 266.081 205.346C266.804 204.623 267.662 204.05 268.606 203.659C269.55 203.268 270.562 203.066 271.584 203.066H271.585L283.797 203.067L283.796 211.102Z" fill="#2F2E41"/>
<path d="M252.512 192.603L243.734 192.252C243.135 192.226 242.57 191.966 242.162 191.528C241.753 191.089 241.533 190.507 241.55 189.908L244.023 108.788L244.184 108.73C259.569 103.165 272.296 103.585 283.094 110.015L283.214 110.087L284.696 189.094C284.702 189.397 284.647 189.697 284.535 189.978C284.423 190.26 284.257 190.516 284.045 190.732C283.833 190.947 283.58 191.119 283.301 191.236C283.022 191.353 282.723 191.413 282.42 191.413H275.018C274.491 191.412 273.98 191.229 273.573 190.894C273.166 190.559 272.887 190.094 272.785 189.576L262.702 138.283C262.667 138.106 262.57 137.947 262.428 137.835C262.287 137.723 262.11 137.665 261.929 137.671C261.749 137.678 261.576 137.749 261.443 137.871C261.311 137.994 261.226 138.159 261.204 138.339L254.862 190.603C254.792 191.154 254.525 191.661 254.109 192.03C253.693 192.398 253.157 192.602 252.602 192.605C252.572 192.605 252.542 192.604 252.512 192.603Z" fill="#7D7C78"/>
<path d="M267.011 36.1236C273.031 32.8326 275.244 25.2843 271.953 19.2641C268.662 13.2438 261.113 11.0313 255.093 14.3224C249.073 17.6134 246.86 25.1616 250.151 31.1819C253.442 37.2021 260.991 39.4146 267.011 36.1236Z" fill="#A0616A"/>
<path d="M205.857 37.5818C206.056 37.1634 206.378 36.8156 206.779 36.5847L210.526 34.4334C210.932 34.2014 211.4 34.0998 211.865 34.1422C212.331 34.1847 212.773 34.3692 213.13 34.6707L225.578 45.2163L254.189 53.2379C255.062 53.6467 255.845 54.2235 256.495 54.9352C257.144 55.647 257.647 56.4798 257.975 57.386C258.302 58.2922 258.448 59.254 258.403 60.2165C258.358 61.179 258.125 62.1233 257.715 62.9954C257.305 63.8675 256.728 64.6503 256.015 65.299C255.303 65.9478 254.47 66.4497 253.563 66.7762C252.656 67.1027 251.694 67.2473 250.732 67.2018C249.77 67.1562 248.825 66.9215 247.954 66.5109L229.678 62.3965C224.13 61.1486 219.226 57.9282 215.875 53.3345L206.074 39.9001C205.886 39.6417 205.754 39.3466 205.687 39.0339C205.62 38.7212 205.62 38.3979 205.686 38.0852C205.723 37.9112 205.78 37.7423 205.857 37.5818Z" fill="#00008B"/>
<path d="M293.654 101.501C293.218 101.658 292.744 101.678 292.297 101.559L288.122 100.449C287.67 100.328 287.266 100.071 286.965 99.7127C286.664 99.3545 286.481 98.9126 286.439 98.4467L285.025 82.1937L270.355 56.3528C270.024 55.4482 269.874 54.487 269.914 53.5243C269.954 52.5617 270.183 51.6163 270.588 50.7423C270.994 49.8683 271.568 49.0827 272.277 48.4306C272.986 47.7785 273.817 47.2726 274.722 46.9418C275.627 46.611 276.588 46.4618 277.551 46.5027C278.514 46.5436 279.459 46.7739 280.332 47.1803C281.206 47.5867 281.991 48.1613 282.642 48.8713C283.294 49.5813 283.799 50.4126 284.129 51.3179L294.21 67.1076C297.271 71.8995 298.486 77.6398 297.631 83.2609L295.132 99.7018C295.084 100.018 294.97 100.32 294.797 100.589C294.624 100.858 294.397 101.088 294.129 101.263C293.981 101.361 293.821 101.441 293.654 101.501Z" fill="#00008B"/>
<path d="M247.464 47.2872C249.597 44.9472 252.229 43.1161 255.165 41.929C258.101 40.742 261.266 40.2293 264.427 40.4287C264.635 40.4415 264.841 40.456 265.048 40.4722C268.043 40.709 270.954 41.5827 273.584 43.0347C276.215 44.4867 278.506 46.4837 280.303 48.892C282.13 51.334 283.414 54.1379 284.071 57.1162C284.727 60.0946 284.74 63.1787 284.109 66.1624C281.7 77.5653 282.31 89.3994 285.877 100.494L289.21 110.843C289.317 111.174 289.346 111.526 289.296 111.871C289.245 112.215 289.116 112.544 288.919 112.831C288.721 113.118 288.46 113.355 288.156 113.526C287.852 113.696 287.513 113.794 287.166 113.813L270.128 114.729L265.767 107.197V114.963L245.059 116.076C245.018 116.079 244.977 116.08 244.936 116.08C244.622 116.08 244.311 116.015 244.024 115.888C243.736 115.762 243.477 115.578 243.264 115.347C243.051 115.116 242.888 114.843 242.786 114.546C242.683 114.249 242.643 113.934 242.668 113.621L245.009 84.5971L242.073 64.8846C241.598 61.735 241.836 58.5189 242.769 55.4733C243.701 52.4277 245.306 49.6303 247.464 47.2872Z" fill="#00008B"/>
<path d="M269.687 37.0869C268.537 37.7487 263.99 38.1875 263.666 36.9006L263.659 36.8723C263.434 35.9295 263.621 34.9449 263.686 33.9776C263.751 33.0103 263.656 31.9477 262.997 31.2365C261.769 29.9107 259.584 30.6135 257.808 30.2783C256.768 30.0461 255.848 29.4428 255.221 28.5814C254.593 27.7199 254.301 26.6594 254.399 25.5981C254.425 25.3971 254.464 25.1958 254.509 24.9946C254.62 24.4849 254.611 23.9565 254.484 23.4507C254.356 22.9449 254.113 22.4755 253.774 22.0794C253.434 21.6834 253.007 21.3714 252.527 21.168C252.047 20.9646 251.526 20.8753 251.005 20.9071C249.21 21.0097 247.273 21.5534 245.788 20.2242C244.64 19.1963 244.36 16.5205 244.865 15.0643C245.712 12.6171 251.143 11.3359 253.515 10.6316C256.448 9.78425 259.532 9.60105 262.545 10.0953C265.557 10.5896 268.422 11.749 270.93 13.4892C272.428 14.5449 273.826 15.8714 274.465 17.5891C275.103 19.3068 274.795 21.4738 273.356 22.6077C274.471 23.7891 275.257 25.243 275.634 26.8237C276.011 28.4044 275.966 30.0564 275.503 31.6142C274.792 33.9053 271.399 36.1017 269.687 37.0869Z" fill="#2F2E41"/>
<path d="M333.623 211.454H189.759C189.659 211.454 189.563 211.415 189.492 211.344C189.422 211.273 189.382 211.177 189.382 211.077C189.382 210.977 189.422 210.881 189.492 210.81C189.563 210.739 189.659 210.699 189.759 210.699H333.623C333.723 210.699 333.819 210.739 333.89 210.81C333.96 210.881 334 210.977 334 211.077C334 211.177 333.96 211.273 333.89 211.344C333.819 211.415 333.723 211.454 333.623 211.454Z" fill="#3F3D56"/>
</g>
<defs>
<clipPath id="clip0_2189_132779">
<rect width="334" height="211.452" fill="white"/>
</clipPath>
</defs>
</svg>
