<?xml version="1.0" encoding="UTF-8"?><svg id="Calque_1" xmlns="http://www.w3.org/2000/svg" xmlns:xlink="http://www.w3.org/1999/xlink" viewBox="0 0 81 81"><defs><style>.cls-1,.cls-2{fill:#001192;}.cls-3{stroke:#fefdff;}.cls-3,.cls-4{stroke-width:.5px;}.cls-3,.cls-4,.cls-5,.cls-6{fill:none;}.cls-7{fill:#e20006;}.cls-8{fill:#d5d7fd;}.cls-4,.cls-5,.cls-9{stroke:#001192;}.cls-5{stroke-width:2px;}.cls-10{fill:#fefeff;}.cls-11{fill:#686eec;}.cls-12{fill:url(#Dégradé_sans_nom);}.cls-13{clip-path:url(#clippath);}.cls-9{fill:#fff;stroke-miterlimit:10;}.cls-14{fill:#9da1fa;}.cls-2{isolation:isolate;opacity:.09;}</style><radialGradient id="Dégradé_sans_nom" cx="-906.16" cy="574.59" fx="-906.16" fy="574.59" r=".5" gradientTransform="translate(72532.9 46008.05) scale(80 -80)" gradientUnits="userSpaceOnUse"><stop offset="0" stop-color="#fff"/><stop offset=".89" stop-color="#fff"/><stop offset="1" stop-color="#7b7b7b"/></radialGradient><clipPath id="clippath"><rect class="cls-6" x="21.1" y="12.62" width="38.79" height="55.75"/></clipPath></defs><g id="Groupe_563"><g id="Groupe_560"><g id="Groupe_550"><g id="Groupe_504"><g id="Ellipse_31"><circle class="cls-9" cx="40.5" cy="40.5" r="40"/><circle class="cls-5" cx="40.5" cy="40.5" r="39"/></g></g></g><g id="Groupe_551"><g id="Groupe_504-2"><g id="Ellipse_31-2"><circle class="cls-12" cx="40.5" cy="40.5" r="40"/><circle class="cls-5" cx="40.5" cy="40.5" r="39"/></g></g></g><g id="Groupe_549"><g class="cls-13"><g id="Groupe_547"><path id="Tracé_1117" class="cls-1" d="m23.37,15.07c-1.72,1.05-.82,9.6.76,14.68l3.62-1.1s-2.67-11.32-1.61-12.9c.5-.82,1.13-1.55,1.85-2.18l-4.61,1.5Z"/><path id="Tracé_1118" class="cls-11" d="m31.8,20.18c-.3-2.01-.85-3.97-1.61-5.85-1.17-2.36-4.57-.94-6.82.74,0,0,2.36-.19,3.01,1.62.59,1.77,1.01,3.6,1.25,5.45l4.17-1.96Z"/><path id="Tracé_1119" class="cls-1" d="m57.79,15.07c1.72,1.05.82,9.6-.76,14.68l-3.62-1.1s2.67-11.32,1.61-12.9c-.5-.82-1.13-1.55-1.85-2.18l4.62,1.5Z"/><path id="Tracé_1120" class="cls-11" d="m49.35,20.18c.3-2.01.85-3.97,1.62-5.85,1.18-2.36,4.57-.94,6.82.74,0,0-2.37-.19-3.01,1.62-.59,1.77-1.01,3.6-1.26,5.45l-4.17-1.96Z"/><path id="Tracé_1121" class="cls-11" d="m59.89,54.82v.56c-.03,5.31-.46,9.25-1.13,9.96-2.22,2.36-9.69,3.03-18.26,3.03s-16.04-.67-18.26-3.03c-.68-.71-1.1-4.65-1.14-9.96v-.56c0-2.54.08-5.37.26-8.3.04-.58.08-1.17.12-1.77.82-10.74,3.01-22.28,7.26-25.54,2.3-1.77,5.56-3.03,11.75-3.03s9.45,1.26,11.75,3.03c4.28,3.29,6.48,15,7.28,25.81.04.6.08,1.19.12,1.78.17,2.83.25,5.56.25,8.02"/><path id="Tracé_1122" class="cls-1" d="m59.55,45.36c-.31-.17-.61-.35-.92-.52.56,5.47.54,15.4-.88,19.3-2.17,5.92-28.48,4.24-32.99,1.55-4.14-2.46-1.73-21.24-1.73-21.24-.06.05-1.45,1.32-1.62,1.44-.01.21-.03.42-.04.62-.18,2.93-.26,5.76-.26,8.3v.56c.03,5.32.46,9.25,1.13,9.96,2.22,2.36,9.69,3.03,18.26,3.03s16.04-.67,18.26-3.03c.67-.71,1.1-4.65,1.13-9.96v-.56c0-2.46-.07-5.19-.25-8.02-.03-.48-.06-.96-.1-1.44"/><path id="Tracé_1123" class="cls-1" d="m57.49,44.23c-.36-3.88-.95-7.73-1.79-11.54-1.19-5.15-2.74-8.64-4.5-10.11-1.66-1.38-4.37-2.97-10.7-2.97s-9.04,1.59-10.7,2.97c-2.9,2.41-5.13,10.05-6.28,21.5l-.99-.1c.4-4.56,1.17-9.08,2.3-13.51,1.18-4.33,2.63-7.24,4.33-8.66,2.66-2.21,6.15-3.2,11.34-3.2s8.68.99,11.34,3.2c1.95,1.63,3.58,5.21,4.83,10.66.85,3.85,1.46,7.74,1.82,11.66l-1,.1Z"/><path id="Tracé_1124" class="cls-1" d="m59.65,46.81c-1.42-1.57-3.11-2.89-4.98-3.89l-.17-1.37c1.93.75,3.65,1.94,5.02,3.48.04.6.08,1.19.12,1.78"/><path id="Tracé_1125" class="cls-1" d="m26.25,41.55l-.17,1.37c-1.76.94-3.35,2.15-4.72,3.6.04-.59.08-1.17.12-1.77,1.32-1.42,2.95-2.52,4.76-3.21"/><path id="Tracé_1126" class="cls-11" d="m56.19,56.49v.49c-.03,4.66-.37,8.11-.92,8.73-.78.9-2.37,1.52-4.48,1.93-3.4.55-6.84.79-10.29.72-6.94,0-12.97-.59-14.77-2.66-.55-.63-.89-4.07-.92-8.73v-.49c-.02-10.74,1.61-27.41,6.18-31.21,1.86-1.55,4.5-2.66,9.51-2.66s7.64,1.11,9.51,2.66c1.75,1.45,3.06,4.78,4.02,8.94,1.49,7.33,2.21,14.79,2.16,22.27"/><path id="Tracé_1127" class="cls-11" d="m56.19,56.49v.49c-.03,4.66-.37,8.11-.92,8.73-.78.9-2.37,1.52-4.48,1.93-3.4.55-6.84.79-10.29.72-3.44.07-6.89-.17-10.29-.72-.6-.12-1.17-.25-1.68-.41-.09-.03-.19-.06-.27-.09l-.19-.06-.15-.05-.15-.06h-.01l-.14-.06-.14-.06c-.09-.04-.19-.08-.28-.12-.05-.02-.1-.05-.14-.07l-.09-.04-.05-.03-.1-.06c-.08-.04-.16-.09-.24-.14-.04-.02-.08-.05-.11-.07-.07-.04-.14-.09-.2-.14h-.01s-.06-.05-.08-.07c0,0-.01,0-.02-.01-.02-.02-.05-.04-.07-.06l-.03-.03s-.05-.04-.08-.07h0s-.05-.05-.08-.07c-.06-.06-.11-.11-.16-.17-.05-.06-.09-.13-.12-.2-.02-.03-.03-.07-.05-.11s-.03-.08-.05-.12-.03-.09-.05-.14-.03-.1-.04-.15c-.03-.11-.06-.22-.08-.35l-.02-.1c-.03-.13-.05-.27-.08-.42s-.05-.31-.07-.47c-.01-.08-.02-.17-.03-.26-.03-.22-.05-.45-.08-.69-.01-.15-.03-.3-.04-.45-.04-.41-.07-.85-.09-1.32,0-.12-.01-.24-.02-.36s-.01-.24-.02-.37c0-.18-.02-.37-.02-.57s-.01-.39-.02-.59c-.02-.66-.03-1.36-.04-2.09v-1.22c0-.22,0-.45,0-.68v-.65c0-.11,0-.22,0-.33,0-.14,0-.28,0-.42,0-.17,0-.33.01-.5,0-.17,0-.34.01-.51,0-.08,0-.17,0-.26,0-.11,0-.23.01-.34,0-.23.02-.46.03-.69.01-.26.02-.52.03-.79.01-.2.02-.41.03-.62,0-.12.01-.24.02-.36.02-.35.04-.71.06-1.07,0-.12.01-.24.02-.36.04-.6.08-1.2.13-1.8.65-8.06,2.13-16.37,4.77-20.01-1.02,2.37-1.68,4.89-1.96,7.45-.13.93-.26,2-.38,3.17-.97,9.41-1.48,25.19.22,27.19.66.76,1.51,1.33,2.46,1.67,1.77.54,3.62.79,5.47.74,7.49.16,12.14-.45,14.85-1.22,1.93-.54,2.88-1.17,3.2-1.66,1.61-2.5,1.24-9.36,1.23-11.18-.01-3.91-.24-7.79-.49-11.69-.09-1.44-.05-2.88-.08-4.32.07.39.15.79.22,1.2.09.5.17,1.02.24,1.53.03.21.06.42.09.62.03.21.06.42.09.63.01.1.03.21.04.31s.03.21.04.32l.04.31h0c.01.11.03.22.04.32.03.21.05.42.08.64.03.21.05.43.07.64,0,.07.01.14.02.2.02.15.03.29.05.44.01.11.02.21.03.32s.02.21.03.32c.01.13.03.26.04.39,0,.08.02.17.02.25.05.58.1,1.17.15,1.75,0,.12.02.24.03.36.01.15.02.3.03.46l.02.32c.02.22.03.44.04.66.01.19.02.37.03.56.02.33.04.67.06,1,0,.16.02.31.02.47s.01.31.02.46c.03.58.05,1.16.06,1.72,0,.11,0,.23,0,.34,0,.13,0,.27.01.4,0,.19,0,.38.01.56v.38c.01.71.02,1.4.02,2.06"/><path id="Tracé_1128" class="cls-14" d="m50,25.28c-3.91.67,1.25,31.36-9.51,31.36s-5.59-30.7-9.51-31.36c1.86-1.55,4.5-2.66,9.51-2.66s7.64,1.11,9.51,2.66"/><path id="Tracé_1129" class="cls-2" d="m40.5,57.48c-.18,0-.36,0-.53-.02-.07,0-.12-.07-.11-.14,0-.07.06-.11.13-.11.35.03.71.03,1.06,0,.07,0,.13.04.14.11,0,.07-.04.13-.11.14-.19.02-.38.03-.57.03m-1.58-.22s-.02,0-.03,0c-.35-.1-.7-.24-1.02-.42-.06-.04-.08-.11-.04-.17.03-.05.1-.08.16-.05.31.17.63.3.97.4.07.02.1.09.09.15-.02.05-.06.09-.12.09m3.2-.01c-.07,0-.13-.05-.13-.12,0-.06.04-.11.09-.12.34-.1.66-.23.97-.4.06-.03.14,0,.17.06.03.06,0,.13-.05.16-.32.18-.66.32-1.02.42-.01,0-.02,0-.04,0m-5.09-1s-.06-.01-.08-.03c-.28-.24-.55-.5-.78-.78-.04-.05-.03-.13.02-.18.05-.04.12-.03.17.01.23.27.48.52.76.75.05.04.06.12.02.18-.02.03-.06.04-.1.04m6.97-.02c-.07,0-.12-.06-.12-.13,0-.04.02-.07.04-.1.27-.23.52-.48.75-.75.04-.05.12-.06.18-.02.05.04.06.12.02.18,0,0,0,0,0,0-.24.28-.5.54-.78.78-.02.02-.05.03-.08.03m-8.39-1.61s-.08-.02-.1-.06c-.2-.31-.38-.63-.55-.96-.03-.06,0-.14.05-.17.06-.03.14,0,.17.05,0,0,0,0,0,0,.16.32.34.63.53.93.04.06.02.14-.04.17,0,0,0,0,0,0-.02.01-.04.02-.07.02m9.8-.03c-.07,0-.12-.06-.12-.13,0-.02,0-.04.02-.06.19-.3.37-.61.53-.93.03-.06.11-.09.17-.06s.09.11.06.17c0,0,0,0,0,0-.16.33-.35.65-.54.96-.02.04-.06.06-.11.06m-10.8-1.92c-.05,0-.1-.03-.12-.08-.13-.32-.26-.67-.38-1.03-.02-.07.01-.14.08-.16s.14.01.16.08c.12.35.25.7.38,1.01.03.06,0,.14-.07.16-.01,0-.03,0-.05,0m11.78-.03s-.03,0-.05,0c-.06-.03-.09-.1-.07-.16,0,0,0,0,0,0,.13-.32.26-.66.38-1.01.02-.06.1-.1.16-.07.06.02.09.09.08.15-.12.36-.25.71-.38,1.03-.02.05-.07.08-.12.08m-12.48-2.04c-.06,0-.1-.04-.12-.09-.1-.34-.19-.7-.27-1.06-.02-.07.02-.14.08-.16s.14.02.16.08c0,0,0,0,0,.01.08.36.18.72.27,1.05.02.07-.02.14-.09.15-.01,0-.02,0-.03,0m13.18-.03c-.07,0-.12-.06-.12-.13,0-.01,0-.02,0-.03.09-.34.18-.69.27-1.05.01-.07.08-.11.14-.1.07.01.11.08.1.14,0,0,0,0,0,.01-.08.36-.18.72-.27,1.06-.02.05-.06.09-.12.09m-13.68-2.09c-.06,0-.11-.04-.12-.1-.07-.35-.13-.71-.2-1.08,0-.07.04-.13.11-.14.06,0,.12.03.13.1.06.37.13.73.2,1.07.01.07-.03.13-.1.15,0,0,0,0,0,0h-.02m14.18-.03h-.02c-.07-.01-.11-.08-.1-.15,0,0,0,0,0,0,.07-.34.13-.7.19-1.07.02-.07.08-.11.15-.09.06.01.1.07.1.13-.06.37-.13.73-.2,1.08-.01.06-.06.1-.12.1m-14.54-2.12c-.06,0-.11-.05-.12-.11-.05-.35-.1-.71-.14-1.08,0-.07.05-.13.11-.13.07,0,.12.04.13.1.04.37.09.73.14,1.08,0,.07-.04.13-.11.14h-.02m14.9-.03h-.02c-.07,0-.12-.07-.11-.14.05-.35.1-.71.14-1.08,0-.07.07-.12.13-.11.07,0,.12.07.11.13,0,0,0,0,0,0-.04.37-.09.74-.14,1.08,0,.06-.06.11-.12.11m-15.17-2.14c-.06,0-.12-.05-.12-.11-.04-.35-.07-.72-.1-1.09,0-.07.04-.13.11-.14.07,0,.13.04.14.11,0,0,0,0,0,0,.03.37.07.74.1,1.08,0,.07-.04.13-.11.14h-.01m15.44-.03h-.01c-.07,0-.12-.07-.11-.14.04-.35.07-.71.1-1.08,0-.07.06-.12.13-.12.07,0,.12.06.12.13,0,0,0,0,0,0-.03.37-.07.74-.1,1.09,0,.06-.06.11-.12.11m-15.63-2.14c-.06,0-.12-.05-.12-.11-.03-.36-.05-.73-.08-1.09,0-.07.05-.13.12-.13.06,0,.12.05.13.11.02.36.05.73.08,1.09,0,.07-.05.13-.12.13h0m15.82-.03h-.01c-.07,0-.12-.07-.11-.13.03-.36.05-.73.08-1.09,0-.07.06-.12.13-.12,0,0,0,0,0,0,.07,0,.12.06.12.13-.02.36-.05.73-.08,1.09,0,.06-.06.11-.12.11m-15.97-2.15c-.07,0-.12-.05-.12-.12-.02-.37-.04-.73-.06-1.09,0-.07.04-.13.11-.14.07,0,.13.04.14.11,0,0,0,.01,0,.02.02.36.04.72.06,1.09,0,.07-.05.13-.12.13h0m16.11-.03h0c-.07,0-.12-.06-.12-.13.02-.36.04-.73.06-1.09,0-.07.06-.12.13-.12,0,0,0,0,0,0,.07,0,.12.06.12.13-.02.36-.04.73-.06,1.09,0,.07-.06.12-.12.12m-16.23-2.15c-.07,0-.12-.05-.12-.12-.02-.37-.03-.73-.05-1.09,0-.07.05-.13.12-.13,0,0,0,0,0,0,.07,0,.12.05.13.12.02.36.03.72.05,1.09,0,.07-.05.13-.12.13,0,0,0,0,0,0h0m16.34-.03h0c-.07,0-.12-.06-.12-.13,0,0,0,0,0,0,.02-.37.03-.73.05-1.09,0-.07.06-.12.13-.12.07,0,.12.06.12.13-.02.36-.03.72-.05,1.09,0,.07-.06.12-.12.12m-16.44-2.15c-.07,0-.12-.05-.12-.12-.02-.37-.03-.73-.05-1.09,0-.07.06-.12.13-.12.06,0,.11.05.12.11.02.36.03.72.05,1.09,0,.07-.05.13-.12.13h0m16.54-.03h0c-.07,0-.12-.06-.12-.13.02-.37.03-.73.05-1.09,0-.07.05-.13.12-.13.07,0,.13.05.13.12,0,0,0,.01,0,.02-.02.36-.03.72-.05,1.09,0,.07-.06.12-.12.12m-16.65-2.15c-.07,0-.12-.05-.12-.12-.02-.37-.04-.74-.06-1.09,0-.07.06-.13.12-.13.06,0,.12.05.12.11.02.36.04.72.06,1.09,0,.07-.05.13-.12.13,0,0,0,0,0,0h0m16.75-.03h0c-.07,0-.12-.06-.12-.13,0,0,0,0,0,0,.02-.37.04-.74.06-1.09,0-.07.06-.12.13-.12,0,0,0,0,0,0,.07,0,.12.06.12.13-.02.35-.04.72-.06,1.09,0,.07-.06.12-.12.12m-16.89-2.15c-.06,0-.12-.05-.12-.11-.03-.39-.06-.75-.1-1.09-.01-.07.03-.13.1-.15s.13.03.15.1c0,0,0,.01,0,.02.03.33.07.7.1,1.09,0,.07-.05.13-.12.13h0m17.03-.03h-.01c-.07,0-.12-.07-.11-.13.03-.4.06-.75.1-1.09,0-.07.07-.12.14-.11s.12.07.11.14h0c-.03.34-.07.69-.1,1.09,0,.06-.06.11-.12.11m-17.25-2.14c-.06,0-.11-.05-.12-.11-.05-.39-.12-.75-.18-1.07-.01-.07.03-.13.1-.15.07-.01.13.03.15.1.07.32.13.69.18,1.09,0,.07-.04.13-.11.14,0,0,0,0,0,0h-.02m17.48-.03h-.02c-.07,0-.12-.07-.11-.14,0,0,0,0,0,0,.06-.4.12-.76.18-1.09,0-.07.07-.12.14-.11.07,0,.12.07.11.14,0,0,0,.01,0,.02-.07.32-.13.68-.18,1.07,0,.06-.06.11-.12.11m-17.94-2.1c-.05,0-.1-.03-.12-.08-.1-.33-.26-.64-.47-.92-.04-.06-.03-.13.03-.17.05-.04.12-.03.16.01.23.3.41.64.52,1,.02.06-.01.14-.08.16,0,0,0,0,0,0-.01,0-.03,0-.04,0m18.4-.03c-.07,0-.12-.06-.12-.13,0-.01,0-.03,0-.04.11-.36.29-.7.53-.99.04-.05.12-.07.18-.02.05.04.07.12.02.18,0,0,0,0-.01.01-.22.27-.38.58-.48.91-.02.05-.06.08-.12.08"/><path id="Tracé_1130" class="cls-1" d="m56.19,56.49v.49c-.03,4.66-.37,8.11-.91,8.73-.78.9-2.37,1.52-4.48,1.93-1.17-15.15,2.3-29.81,3.24-33.43,1.49,7.33,2.21,14.79,2.16,22.27"/><path id="Tracé_1132" class="cls-1" d="m24.81,56.49v.49c.03,4.66.37,8.11.92,8.73.78.9,2.37,1.52,4.48,1.93,1.17-15.15-2.3-29.81-3.24-33.43-1.49,7.33-2.21,14.79-2.16,22.27"/><path id="Tracé_1135" class="cls-2" d="m56.29,65.22h-.03c-.09-.02-.15-.1-.13-.19,0,0,0,0,0,0,.05-.3.1-.64.15-1.01.01-.09.09-.16.19-.15.09.01.16.09.15.19h0c-.05.38-.1.73-.15,1.03-.01.08-.08.14-.16.14m-31.58-.02c-.08,0-.15-.06-.16-.14-.05-.3-.1-.65-.15-1.03-.01-.09.05-.17.15-.19.09-.01.17.05.19.15.05.38.1.72.15,1.01.02.09-.04.18-.14.19h-.03m31.84-2.03h-.01c-.09,0-.16-.09-.15-.18.03-.32.06-.67.08-1.03,0-.09.08-.16.17-.16,0,0,0,0,0,0,.09,0,.16.08.16.18,0,0,0,0,0,0-.02.36-.05.71-.08,1.03,0,.09-.08.15-.17.15m-32.1-.02c-.09,0-.16-.07-.17-.15-.03-.32-.05-.67-.08-1.03,0-.09.06-.17.15-.18,0,0,0,0,0,0,.09,0,.17.06.18.15,0,0,0,0,0,0,.02.36.05.71.08,1.03,0,.09-.06.17-.15.18h-.01m32.23-2.04h0c-.09,0-.16-.08-.16-.17,0,0,0,0,0,0,.02-.33.03-.68.04-1.03,0-.09.08-.16.17-.16.09,0,.16.08.16.17-.01.35-.03.7-.04,1.04,0,.09-.08.16-.17.16m-32.37-.02c-.09,0-.16-.07-.17-.16-.02-.33-.03-.68-.04-1.04,0-.09.07-.17.16-.17.09,0,.17.07.17.16h0c.01.35.02.7.04,1.03,0,.09-.07.17-.16.17,0,0,0,0,0,0h0m32.44-2.04h0c-.09,0-.16-.08-.16-.17,0,0,0,0,0,0,0-.33.01-.68.01-1.03,0-.09.07-.17.17-.17h0c.09,0,.17.08.17.17,0,0,0,0,0,0,0,.35,0,.7-.01,1.04,0,.09-.08.16-.17.16m-32.5-.02c-.09,0-.16-.07-.17-.16,0-.34-.01-.68-.01-1.04,0-.09.07-.17.17-.17h0c.09,0,.16.07.17.17,0,.35,0,.7.01,1.03,0,.09-.07.17-.16.17,0,0,0,0,0,0h0m32.52-2.05c-.09,0-.17-.07-.17-.17h0v-1.03c0-.09.07-.17.17-.17h0c.09,0,.16.07.17.17,0,.34,0,.67,0,1v.04c0,.09-.07.17-.17.17h0m-32.54-.02c-.09,0-.17-.07-.17-.17h0v-1.04c0-.09.07-.17.17-.17h0c.09,0,.17.08.17.17v1.03c0,.09-.07.17-.17.17h0m32.53-2.05c-.09,0-.16-.07-.17-.16,0-.34-.01-.68-.02-1.03,0-.09.07-.17.16-.17s.17.07.17.16c0,.35.02.69.02,1.04,0,.09-.07.17-.16.17h0m-32.51-.02h0c-.09,0-.17-.08-.16-.17,0,0,0,0,0,0,0-.34.01-.69.02-1.04,0-.09.08-.16.17-.16h0c.09,0,.16.08.16.17,0,0,0,0,0,0,0,.35-.02.69-.02,1.03,0,.09-.08.16-.17.16m32.46-2.05c-.09,0-.16-.07-.17-.16-.01-.34-.02-.69-.04-1.03,0-.09.07-.17.16-.17.09,0,.17.07.17.16,0,0,0,0,0,0,.01.35.03.69.04,1.03,0,.09-.07.17-.16.17h0m-32.4-.02h0c-.09,0-.16-.08-.16-.17.01-.34.02-.69.04-1.04,0-.09.08-.16.17-.16s.16.08.16.17c-.01.35-.03.69-.04,1.03,0,.09-.08.16-.17.16m32.32-2.04c-.09,0-.16-.07-.17-.16-.02-.34-.03-.69-.05-1.03,0-.09.06-.17.16-.18s.17.06.18.16c.02.35.04.69.06,1.03,0,.09-.07.17-.16.17,0,0,0,0,0,0h0m-32.23-.02h0c-.09,0-.16-.08-.16-.17.02-.34.03-.69.06-1.03,0-.09.08-.16.18-.16s.16.08.16.18c-.02.35-.04.69-.05,1.03,0,.09-.08.16-.17.16m32.12-2.04c-.09,0-.16-.07-.17-.16-.02-.34-.05-.69-.07-1.03,0-.09.09-.16.18-.15.07,0,.13.06.15.13.03.35.05.69.07,1.03,0,.09-.06.17-.15.18,0,0,0,0,0,0h-.01m-32-.02h0c-.09,0-.16-.08-.16-.18,0,0,0,0,0,0,.02-.34.05-.69.07-1.03,0-.09.09-.16.18-.15s.16.09.15.18h0c-.02.34-.05.69-.07,1.03,0,.09-.08.16-.17.16m31.85-2.04c-.09,0-.16-.07-.17-.15-.03-.34-.06-.69-.09-1.03,0-.09.06-.17.15-.18.09,0,.17.06.18.15.03.34.06.69.09,1.03,0,.09-.06.17-.15.18h-.01m-31.7-.02h-.01c-.09,0-.16-.09-.15-.18,0,0,0,0,0,0,.03-.34.06-.69.09-1.03,0-.09.09-.16.18-.15.09,0,.16.09.15.18h0c-.03.34-.06.69-.09,1.03,0,.09-.08.15-.17.15m31.52-2.04c-.09,0-.16-.07-.17-.15-.03-.34-.07-.68-.1-1.03,0-.09.06-.17.15-.18.09,0,.17.06.18.15.04.34.07.69.1,1.03,0,.09-.06.17-.15.18,0,0,0,0,0,0h-.02m-31.33-.02h-.02c-.09,0-.16-.09-.15-.18.03-.34.07-.69.1-1.03,0-.09.09-.16.18-.15.09,0,.16.09.15.18h0c-.04.34-.07.69-.1,1.03,0,.08-.08.15-.17.15m31.12-2.04c-.08,0-.16-.06-.17-.15-.04-.34-.08-.68-.12-1.02-.01-.09.05-.17.14-.19s.17.05.19.14h0c.04.34.08.68.12,1.03.01.09-.05.17-.15.18,0,0,0,0,0,0h-.02m-30.9-.02h-.02c-.09-.01-.16-.09-.15-.18.04-.34.08-.69.12-1.03.01-.09.09-.16.19-.14.09.01.16.09.14.19h0c-.04.34-.08.68-.12,1.03,0,.08-.08.15-.17.15m30.63-2.03c-.08,0-.15-.06-.17-.14-.05-.34-.09-.68-.15-1.02-.01-.09.05-.18.14-.19.09-.01.18.05.19.14h0c.05.34.1.68.15,1.03.01.09-.05.17-.14.19,0,0,0,0,0,0h-.02m-30.38-.03h-.02c-.09-.01-.15-.1-.14-.19,0,0,0,0,0,0,.05-.34.1-.69.15-1.03.01-.09.1-.15.19-.14.09.01.15.1.14.19-.05.34-.1.68-.15,1.02-.01.08-.08.14-.17.14m30.08-2.02c-.08,0-.15-.06-.16-.14-.05-.34-.11-.68-.17-1.02-.02-.09.04-.18.14-.19.09-.02.18.04.19.14.06.34.12.68.17,1.02.01.09-.05.18-.14.19,0,0,0,0,0,0h-.03m-29.78-.03h-.03c-.09-.01-.15-.1-.14-.19,0,0,0,0,0,0,.06-.34.11-.68.17-1.02.02-.09.1-.15.19-.14s.15.1.14.19c-.06.33-.12.67-.17,1.02-.01.08-.08.14-.16.14m29.42-2.01c-.08,0-.15-.06-.16-.14-.06-.34-.13-.68-.2-1.01-.02-.09.04-.18.13-.2.09-.02.18.04.2.13h0c.07.33.13.67.2,1.02.02.09-.04.18-.13.19,0,0,0,0,0,0-.01,0-.02,0-.03,0m-29.07-.03h-.03c-.09-.02-.15-.1-.13-.19.07-.34.13-.69.2-1.02.02-.09.11-.15.2-.13.09.02.15.11.13.2h0c-.07.33-.13.67-.2,1.01-.01.08-.08.14-.16.14m28.66-2c-.08,0-.15-.05-.16-.13-.03-.13-.06-.27-.09-.41-.05-.2-.09-.4-.14-.6-.03-.09.02-.18.11-.21.09-.03.18.02.21.11,0,0,0,.01,0,.02.05.2.1.4.14.6.03.13.06.27.09.41.02.09-.03.18-.12.2,0,0,0,0,0,0-.01,0-.02,0-.04,0m-28.24-.03s-.02,0-.04,0c-.09-.02-.15-.11-.13-.2,0,0,0,0,0,0,.08-.34.16-.68.24-1.01.02-.09.11-.14.2-.12.09.02.14.11.12.2h0c-.08.33-.16.66-.23,1-.02.08-.08.13-.16.13m27.75-1.98c-.08,0-.14-.05-.16-.12-.09-.34-.18-.67-.28-.99-.03-.09.02-.18.11-.21s.18.02.21.11c.1.32.19.66.28,1,.02.09-.03.18-.12.2-.01,0-.03,0-.04,0m-27.26-.03c-.09,0-.17-.08-.17-.17,0-.01,0-.03,0-.04.09-.34.19-.68.28-1,.03-.09.12-.14.21-.11s.14.12.11.21c-.09.32-.19.65-.28.99-.02.07-.09.12-.16.12m26.67-1.95c-.07,0-.14-.05-.16-.12-.11-.33-.22-.66-.34-.97-.03-.09.01-.18.1-.21s.18.01.21.1c.12.31.23.64.34.98.03.09-.02.18-.11.21-.02,0-.03,0-.05,0m-26.08-.03c-.09,0-.17-.07-.17-.17,0-.02,0-.04,0-.05.11-.34.23-.67.34-.98.03-.09.13-.13.21-.1s.13.13.1.21c-.11.31-.23.63-.34.97-.02.07-.09.11-.16.11m25.36-1.89c-.07,0-.13-.04-.15-.1-.14-.33-.28-.64-.42-.93-.04-.08,0-.18.08-.22s.18,0,.22.08h0c.15.3.29.62.43.95.04.09,0,.18-.09.22-.02,0-.04.01-.06.01m-24.64-.03c-.09,0-.17-.08-.17-.17,0-.02,0-.04.01-.06.14-.33.29-.65.43-.95.04-.08.14-.12.22-.08s.12.14.08.22h0c-.15.29-.29.6-.43.93-.03.06-.09.1-.15.1m23.72-1.82c-.06,0-.11-.03-.14-.08-.17-.29-.36-.57-.56-.85-.06-.07-.04-.18.03-.23.07-.06.18-.04.23.03.21.28.4.57.58.88.05.08.02.18-.06.23-.03.01-.05.02-.08.02m-22.8-.03c-.09,0-.17-.07-.17-.16,0-.03,0-.06.02-.09.18-.3.37-.59.58-.87.06-.07.16-.09.23-.03.07.06.09.16.03.23h0c-.2.27-.39.55-.56.84-.03.05-.08.08-.14.08m21.55-1.61s-.08-.02-.11-.05c-.1-.09-.19-.18-.29-.26-.16-.13-.32-.26-.49-.38-.07-.06-.09-.16-.03-.23s.16-.09.23-.03c.17.12.34.26.5.39.1.09.21.18.31.28.07.06.07.17,0,.23-.03.03-.07.05-.12.05m-20.3-.02c-.09,0-.17-.07-.17-.16,0-.05.02-.09.05-.12.1-.09.19-.18.29-.26.17-.14.35-.28.52-.41.07-.06.18-.04.23.03s.04.18-.03.23c-.17.13-.34.26-.51.4-.09.08-.18.16-.27.24-.03.03-.07.05-.12.05m18.64-1.21s-.06,0-.08-.02c-.29-.17-.59-.33-.9-.47-.08-.05-.11-.15-.06-.23.04-.07.12-.1.2-.07.32.15.63.31.93.49.08.05.11.15.06.23-.03.05-.09.08-.15.08m-16.98-.02c-.09,0-.17-.07-.17-.16,0-.06.03-.12.08-.15.3-.18.61-.34.93-.48.08-.05.18-.02.23.06.05.08.02.18-.06.23,0,0-.02,0-.03.01-.31.14-.61.3-.9.47-.03.02-.05.02-.08.02m15.11-.85s-.04,0-.06,0c-.31-.11-.64-.21-.97-.3-.09-.02-.14-.12-.12-.2s.12-.14.2-.12c.34.09.68.2,1,.31.09.03.13.12.1.21-.02.07-.09.11-.16.11m-13.24,0c-.09,0-.17-.07-.17-.16,0-.07.04-.13.11-.16.32-.11.66-.22,1-.31.09-.02.18.03.2.12.02.09-.03.18-.12.2-.34.09-.66.19-.98.3-.02,0-.04,0-.06,0m11.25-.53s-.02,0-.03,0c-.32-.06-.66-.12-1.01-.17-.09-.01-.15-.1-.14-.19.01-.09.1-.15.19-.14h0c.35.05.7.11,1.03.17.09.02.15.11.13.2-.02.07-.08.13-.16.13m-9.25,0c-.09,0-.17-.07-.17-.16,0-.08.06-.16.14-.17.33-.06.67-.12,1.03-.17.09-.01.18.05.19.14.01.09-.05.18-.14.19-.35.05-.69.1-1.01.17-.01,0-.02,0-.03,0m7.21-.28h-.01c-.33-.03-.67-.05-1.02-.07-.09-.01-.16-.09-.15-.18,0-.08.08-.15.16-.15.35.02.7.04,1.04.07.09,0,.16.08.16.17s-.08.16-.17.16m-5.16,0c-.09,0-.17-.07-.17-.16s.07-.17.16-.17c.33-.03.68-.05,1.04-.07.09,0,.17.08.16.17,0,.08-.06.15-.15.16-.35.02-.69.04-1.02.07h-.01m3.1-.1h0c-.34,0-.69,0-1.03,0h0c-.09,0-.16-.09-.15-.18,0-.08.07-.15.15-.15.34,0,.7,0,1.04,0,.09,0,.17.07.17.17s-.07.17-.17.17"/><path id="Tracé_1137" class="cls-7" d="m47.88,19.03c-1.28,0-2.07-1.01-2.9-2.09-1.05-1.35-2.13-2.74-4.35-2.74-2.36,0-3.7,1.57-4.89,2.96-.86,1-1.6,1.87-2.62,1.87-.44-.02-.78-.38-.76-.82.01-.41.35-.75.76-.76.3,0,.92-.73,1.42-1.31,1.27-1.48,3.01-3.51,6.09-3.51s4.49,1.94,5.59,3.35c.62.79,1.15,1.48,1.65,1.48.44.02.78.38.76.82-.01.41-.35.75-.76.76"/><path id="Tracé_1138" class="cls-1" d="m40.5,49.59c-1.36,0-2.46-1.1-2.46-2.46h0v-3.68l2.46-.21,2.46.21v3.68c0,1.36-1.1,2.46-2.46,2.46h0"/><path id="Tracé_1139" class="cls-7" d="m40.5,48.78c-1.01,0-1.83-.82-1.83-1.83h0v-2.75l1.83-.15,1.83.15v2.75c0,1.01-.82,1.83-1.83,1.83h0"/></g></g></g><path id="Tracé_1162" class="cls-3" d="m36.68,18.5s-9.99,11.14-2.24,22.78,3.75,15.46,3.75,15.46"/><g id="Groupe_559"><path id="wired-mouse" class="cls-10" d="m46.98,70.31l1.08-.79c1.9-1.39,2.32-4.06.94-5.97l-2.69-3.7-7.99,5.81,2.69,3.7c1.39,1.9,4.06,2.32,5.97.94Zm-9.59-13.55l.91-.66c2.21-1.6,5.3-1.11,6.91,1.09l4.34,5.97c1.6,2.21,1.11,5.3-1.09,6.91l-1.08.79c-2.21,1.6-5.3,1.11-6.91-1.09l-4.34-5.97c-1.6-2.21-1.11-5.3,1.09-6.91l.17-.12Zm8.54,2.56l-1.26-1.73c-1.39-1.9-4.06-2.32-5.97-.94l-.21.15,1.21,1.66c.33-.05.67.08.87.36l.85,1.17c.2.27.22.64.07.94l.78,1.07,3.67-2.67Zm-4.32,3.14l-.78-1.07c-.33.05-.67-.08-.87-.36l-.85-1.17c-.2-.27-.22-.64-.07-.94l-1.21-1.66-.21.16c-1.9,1.39-2.32,4.06-.94,5.97l1.26,1.73,3.67-2.67Z"/><path id="Tracé_1163" class="cls-10" d="m37.69,56.87c2.47-1.79,5.92-1.25,7.71,1.22l3.76,5.17c1.79,2.47.9,5.45-1.56,7.24s-5.58,1.72-7.37-.75l-3.76-5.17c-1.79-2.47-1.25-5.92,1.22-7.71Z"/><path id="Tracé_1160" class="cls-8" d="m38.69,56.4c2.47-1.79,5.92-1.25,7.71,1.22l3.76,5.17c1.79,2.47.9,5.45-1.56,7.24s-5.58,1.72-7.37-.75l-3.76-5.17c-1.79-2.47-1.25-5.92,1.22-7.71Z"/><path id="wired-mouse-2" class="cls-1" d="m47.89,70.3l1.08-.79c1.9-1.39,2.32-4.06.94-5.97l-2.69-3.7-7.99,5.81,2.69,3.7c1.39,1.9,4.06,2.32,5.97.94Zm-9.59-13.55l.91-.66c2.21-1.6,5.3-1.11,6.91,1.09l4.34,5.97c1.6,2.21,1.11,5.3-1.09,6.91l-1.08.79c-2.21,1.6-5.3,1.11-6.91-1.09l-4.34-5.97c-1.6-2.21-1.11-5.3,1.09-6.91l.17-.12Zm8.54,2.56l-1.26-1.73c-1.39-1.9-4.06-2.32-5.97-.94l-.21.15,1.21,1.66c.33-.05.67.08.87.36l.85,1.17c.2.27.22.64.07.94l.78,1.07,3.67-2.67Zm-4.32,3.14l-.78-1.07c-.33.05-.67-.08-.87-.36l-.85-1.17c-.2-.27-.22-.64-.07-.94l-1.21-1.66-.21.16c-1.9,1.39-2.32,4.06-.94,5.97l1.26,1.73,3.67-2.67Z"/></g><path id="Tracé_1161" class="cls-4" d="m37.68,18.5s-9.99,11.14-2.24,22.78,3.75,15.46,3.75,15.46"/></g></g></svg>