<svg width="49" height="49" viewBox="0 0 49 49" fill="none" xmlns="http://www.w3.org/2000/svg">
<g id="Sketch-annotation-element-stroke-icon-line-idea-lightbulb">
<path id="Vector" d="M30.1701 18.034C25.4769 12.7598 15.5765 16.8739 15.92 23.9679C16.1273 28.2485 20.621 30.0694 22.1252 33.724L30.675 31.4143C30.653 30.3344 30.8394 28.9926 30.9938 28.1571C31.3148 26.4213 32.0846 25.1354 32.0168 23.3139C31.9522 21.5808 31.2862 19.2885 30.1701 18.034Z" stroke="white" stroke-width="2.17751" stroke-miterlimit="1.5" stroke-linecap="round" stroke-linejoin="round"/>
<path id="Vector_2" fill-rule="evenodd" clip-rule="evenodd" d="M23.3612 38.9243C23.0433 37.7571 22.6705 36.6048 22.3754 35.4318C22.2585 34.9673 22.0268 34.4231 22.3396 33.9918C22.7964 33.3622 23.6469 33.0587 24.3673 32.8453C25.7176 32.4457 27.0902 32.0871 28.4513 31.7224C29.0712 31.5561 29.9668 31.1987 30.6084 31.3558C31.2189 31.5047 31.5689 32.2656 31.7741 32.788C32.1675 33.789 33.0951 36.0109 32.4348 37.0464C32.0189 37.6987 31.1867 38.0364 30.5036 38.3143C28.6914 39.0513 23.7462 40.3381 23.3612 38.9243Z" stroke="white" stroke-width="2.17751" stroke-miterlimit="1.5" stroke-linecap="round" stroke-linejoin="round"/>
<path id="Vector_3" d="M28.7157 38.9043C28.9027 39.5357 29.0828 40.1726 29.2042 40.8207" stroke="white" stroke-width="2.17751" stroke-miterlimit="1.5" stroke-linecap="round" stroke-linejoin="round"/>
<path id="Vector_4" d="M11.273 33.2062C11.8448 32.6741 12.4631 32.1964 13.0461 31.6776" stroke="white" stroke-width="2.17751" stroke-miterlimit="1.5" stroke-linecap="round" stroke-linejoin="round"/>
<path id="Vector_5" d="M7.57617 19.5264C8.44828 19.798 9.30151 20.128 10.1742 20.3951" stroke="white" stroke-width="2.17751" stroke-miterlimit="1.5" stroke-linecap="round" stroke-linejoin="round"/>
<path id="Vector_6" d="M20.754 9.95504C20.4749 9.0259 20.2296 8.09484 20.0067 7.15088" stroke="white" stroke-width="2.17751" stroke-miterlimit="1.5" stroke-linecap="round" stroke-linejoin="round"/>
<path id="Vector_7" d="M34.0011 13.219C34.7685 12.348 35.5739 11.5069 36.364 10.6563" stroke="white" stroke-width="2.17751" stroke-miterlimit="1.5" stroke-linecap="round" stroke-linejoin="round"/>
<path id="Vector_8" d="M35.8164 26.4163C36.7115 26.8674 37.6076 27.3102 38.4863 27.7927" stroke="white" stroke-width="2.17751" stroke-miterlimit="1.5" stroke-linecap="round" stroke-linejoin="round"/>
</g>
</svg>
